<mxfile host="app.diagrams.net" agent="Mozilla/5.0 (Windows NT 10.0; Win64; x64) AppleWebKit/537.36 (KHTML, like Gecko) Chrome/136.0.0.0 Safari/537.36" version="26.2.12" pages="6">
  <diagram name="Города" id="rvx9Eytj60oc7GgqrsQo">
    <mxGraphModel dx="1283" dy="535" grid="1" gridSize="10" guides="1" tooltips="1" connect="1" arrows="1" fold="1" page="1" pageScale="1" pageWidth="850" pageHeight="1100" math="0" shadow="0">
      <root>
        <mxCell id="0" />
        <mxCell id="1" parent="0" />
        <mxCell id="3wvi0kcAIpPuui1gEmCT-31" value="" style="group" parent="1" vertex="1" connectable="0">
          <mxGeometry x="30" y="40" width="180" height="90" as="geometry" />
        </mxCell>
        <mxCell id="3wvi0kcAIpPuui1gEmCT-33" value="" style="group" parent="3wvi0kcAIpPuui1gEmCT-31" vertex="1" connectable="0">
          <mxGeometry width="180" height="90" as="geometry" />
        </mxCell>
        <mxCell id="3wvi0kcAIpPuui1gEmCT-35" value="" style="group" parent="3wvi0kcAIpPuui1gEmCT-33" vertex="1" connectable="0">
          <mxGeometry width="180" height="90" as="geometry" />
        </mxCell>
        <mxCell id="3wvi0kcAIpPuui1gEmCT-1" value="&lt;font face=&quot;Times New Roman&quot; style=&quot;font-size: 16px;&quot;&gt;Минск&lt;/font&gt;" style="rounded=0;whiteSpace=wrap;html=1;movable=1;resizable=1;rotatable=1;deletable=1;editable=1;locked=0;connectable=1;" parent="3wvi0kcAIpPuui1gEmCT-35" vertex="1">
          <mxGeometry width="180" height="90" as="geometry" />
        </mxCell>
        <mxCell id="3wvi0kcAIpPuui1gEmCT-2" value="&lt;font face=&quot;Times New Roman&quot; style=&quot;font-size: 14px;&quot;&gt;1&lt;/font&gt;" style="rounded=0;whiteSpace=wrap;html=1;movable=1;resizable=1;rotatable=1;deletable=1;editable=1;locked=0;connectable=1;" parent="3wvi0kcAIpPuui1gEmCT-35" vertex="1">
          <mxGeometry x="60" width="60.00000000000001" height="30.000000000000004" as="geometry" />
        </mxCell>
        <mxCell id="3wvi0kcAIpPuui1gEmCT-36" value="" style="group" parent="1" vertex="1" connectable="0">
          <mxGeometry x="230" y="40" width="180" height="90" as="geometry" />
        </mxCell>
        <mxCell id="3wvi0kcAIpPuui1gEmCT-37" value="&lt;font face=&quot;Times New Roman&quot; style=&quot;font-size: 16px;&quot;&gt;Гродно&lt;/font&gt;" style="rounded=0;whiteSpace=wrap;html=1;movable=1;resizable=1;rotatable=1;deletable=1;editable=1;locked=0;connectable=1;" parent="3wvi0kcAIpPuui1gEmCT-36" vertex="1">
          <mxGeometry width="180" height="90" as="geometry" />
        </mxCell>
        <mxCell id="3wvi0kcAIpPuui1gEmCT-38" value="&lt;font face=&quot;Times New Roman&quot; style=&quot;font-size: 14px;&quot;&gt;2&lt;/font&gt;" style="rounded=0;whiteSpace=wrap;html=1;movable=1;resizable=1;rotatable=1;deletable=1;editable=1;locked=0;connectable=1;" parent="3wvi0kcAIpPuui1gEmCT-36" vertex="1">
          <mxGeometry x="60" width="60.00000000000001" height="30.000000000000004" as="geometry" />
        </mxCell>
        <mxCell id="3wvi0kcAIpPuui1gEmCT-57" value="" style="group" parent="1" vertex="1" connectable="0">
          <mxGeometry x="440" y="40" width="180" height="90" as="geometry" />
        </mxCell>
        <mxCell id="3wvi0kcAIpPuui1gEmCT-58" value="" style="group" parent="3wvi0kcAIpPuui1gEmCT-57" vertex="1" connectable="0">
          <mxGeometry width="180" height="90" as="geometry" />
        </mxCell>
        <mxCell id="3wvi0kcAIpPuui1gEmCT-59" value="" style="group" parent="3wvi0kcAIpPuui1gEmCT-58" vertex="1" connectable="0">
          <mxGeometry width="180" height="90" as="geometry" />
        </mxCell>
        <mxCell id="3wvi0kcAIpPuui1gEmCT-60" value="&lt;font style=&quot;font-size: 14px;&quot;&gt;Брест&lt;/font&gt;" style="rounded=0;whiteSpace=wrap;html=1;movable=1;resizable=1;rotatable=1;deletable=1;editable=1;locked=0;connectable=1;" parent="3wvi0kcAIpPuui1gEmCT-59" vertex="1">
          <mxGeometry width="180" height="90" as="geometry" />
        </mxCell>
        <mxCell id="3wvi0kcAIpPuui1gEmCT-61" value="&lt;font face=&quot;Times New Roman&quot; style=&quot;font-size: 14px;&quot;&gt;3&lt;/font&gt;" style="rounded=0;whiteSpace=wrap;html=1;movable=1;resizable=1;rotatable=1;deletable=1;editable=1;locked=0;connectable=1;" parent="3wvi0kcAIpPuui1gEmCT-59" vertex="1">
          <mxGeometry x="60" width="60.00000000000001" height="30.000000000000004" as="geometry" />
        </mxCell>
        <mxCell id="3wvi0kcAIpPuui1gEmCT-62" value="" style="group" parent="1" vertex="1" connectable="0">
          <mxGeometry x="640" y="40" width="180" height="90" as="geometry" />
        </mxCell>
        <mxCell id="3wvi0kcAIpPuui1gEmCT-63" value="&lt;font face=&quot;Times New Roman&quot; style=&quot;&quot;&gt;&lt;span style=&quot;font-size: 16px;&quot;&gt;Витебск&lt;/span&gt;&lt;/font&gt;" style="rounded=0;whiteSpace=wrap;html=1;movable=1;resizable=1;rotatable=1;deletable=1;editable=1;locked=0;connectable=1;" parent="3wvi0kcAIpPuui1gEmCT-62" vertex="1">
          <mxGeometry width="180" height="90" as="geometry" />
        </mxCell>
        <mxCell id="3wvi0kcAIpPuui1gEmCT-64" value="&lt;font face=&quot;Times New Roman&quot; style=&quot;font-size: 14px;&quot;&gt;4&lt;/font&gt;" style="rounded=0;whiteSpace=wrap;html=1;movable=1;resizable=1;rotatable=1;deletable=1;editable=1;locked=0;connectable=1;" parent="3wvi0kcAIpPuui1gEmCT-62" vertex="1">
          <mxGeometry x="60" width="60.00000000000001" height="30.000000000000004" as="geometry" />
        </mxCell>
        <mxCell id="3wvi0kcAIpPuui1gEmCT-65" value="" style="group" parent="1" vertex="1" connectable="0">
          <mxGeometry x="30" y="150" width="180" height="90" as="geometry" />
        </mxCell>
        <mxCell id="3wvi0kcAIpPuui1gEmCT-66" value="" style="group" parent="3wvi0kcAIpPuui1gEmCT-65" vertex="1" connectable="0">
          <mxGeometry width="180" height="90" as="geometry" />
        </mxCell>
        <mxCell id="3wvi0kcAIpPuui1gEmCT-67" value="" style="group" parent="3wvi0kcAIpPuui1gEmCT-66" vertex="1" connectable="0">
          <mxGeometry width="180" height="90" as="geometry" />
        </mxCell>
        <mxCell id="3wvi0kcAIpPuui1gEmCT-68" value="&lt;font face=&quot;Times New Roman&quot;&gt;&lt;span style=&quot;font-size: 16px;&quot;&gt;Гомель&lt;/span&gt;&lt;/font&gt;" style="rounded=0;whiteSpace=wrap;html=1;movable=1;resizable=1;rotatable=1;deletable=1;editable=1;locked=0;connectable=1;" parent="3wvi0kcAIpPuui1gEmCT-67" vertex="1">
          <mxGeometry width="180" height="90" as="geometry" />
        </mxCell>
        <mxCell id="3wvi0kcAIpPuui1gEmCT-69" value="&lt;font face=&quot;Times New Roman&quot; style=&quot;font-size: 14px;&quot;&gt;5&lt;/font&gt;" style="rounded=0;whiteSpace=wrap;html=1;movable=1;resizable=1;rotatable=1;deletable=1;editable=1;locked=0;connectable=1;" parent="3wvi0kcAIpPuui1gEmCT-67" vertex="1">
          <mxGeometry x="60" width="60.00000000000001" height="30.000000000000004" as="geometry" />
        </mxCell>
        <mxCell id="3wvi0kcAIpPuui1gEmCT-70" value="" style="group" parent="1" vertex="1" connectable="0">
          <mxGeometry x="230" y="150" width="180" height="90" as="geometry" />
        </mxCell>
        <mxCell id="3wvi0kcAIpPuui1gEmCT-71" value="&lt;font face=&quot;Times New Roman&quot;&gt;&lt;span style=&quot;font-size: 16px;&quot;&gt;Могилёв&lt;/span&gt;&lt;/font&gt;" style="rounded=0;whiteSpace=wrap;html=1;movable=1;resizable=1;rotatable=1;deletable=1;editable=1;locked=0;connectable=1;" parent="3wvi0kcAIpPuui1gEmCT-70" vertex="1">
          <mxGeometry width="180" height="90" as="geometry" />
        </mxCell>
        <mxCell id="3wvi0kcAIpPuui1gEmCT-72" value="&lt;font face=&quot;Times New Roman&quot; style=&quot;font-size: 14px;&quot;&gt;6&lt;/font&gt;" style="rounded=0;whiteSpace=wrap;html=1;movable=1;resizable=1;rotatable=1;deletable=1;editable=1;locked=0;connectable=1;" parent="3wvi0kcAIpPuui1gEmCT-70" vertex="1">
          <mxGeometry x="60" width="60.00000000000001" height="30.000000000000004" as="geometry" />
        </mxCell>
        <mxCell id="3wvi0kcAIpPuui1gEmCT-73" value="" style="group" parent="1" vertex="1" connectable="0">
          <mxGeometry x="440" y="150" width="180" height="90" as="geometry" />
        </mxCell>
        <mxCell id="3wvi0kcAIpPuui1gEmCT-74" value="" style="group" parent="3wvi0kcAIpPuui1gEmCT-73" vertex="1" connectable="0">
          <mxGeometry width="180" height="90" as="geometry" />
        </mxCell>
        <mxCell id="3wvi0kcAIpPuui1gEmCT-75" value="" style="group" parent="3wvi0kcAIpPuui1gEmCT-74" vertex="1" connectable="0">
          <mxGeometry width="180" height="90" as="geometry" />
        </mxCell>
        <mxCell id="3wvi0kcAIpPuui1gEmCT-76" value="&lt;font face=&quot;Times New Roman&quot;&gt;&lt;span style=&quot;font-size: 16px;&quot;&gt;Лида&lt;/span&gt;&lt;/font&gt;" style="rounded=0;whiteSpace=wrap;html=1;movable=1;resizable=1;rotatable=1;deletable=1;editable=1;locked=0;connectable=1;" parent="3wvi0kcAIpPuui1gEmCT-75" vertex="1">
          <mxGeometry width="180" height="90" as="geometry" />
        </mxCell>
        <mxCell id="3wvi0kcAIpPuui1gEmCT-77" value="&lt;font face=&quot;Times New Roman&quot; style=&quot;font-size: 14px;&quot;&gt;7&lt;/font&gt;" style="rounded=0;whiteSpace=wrap;html=1;movable=1;resizable=1;rotatable=1;deletable=1;editable=1;locked=0;connectable=1;" parent="3wvi0kcAIpPuui1gEmCT-75" vertex="1">
          <mxGeometry x="60" width="60.00000000000001" height="30.000000000000004" as="geometry" />
        </mxCell>
        <mxCell id="3wvi0kcAIpPuui1gEmCT-78" value="" style="group" parent="1" vertex="1" connectable="0">
          <mxGeometry x="640" y="150" width="180" height="90" as="geometry" />
        </mxCell>
        <mxCell id="3wvi0kcAIpPuui1gEmCT-79" value="&lt;font face=&quot;Times New Roman&quot;&gt;&lt;span style=&quot;font-size: 16px;&quot;&gt;Полоцк&lt;/span&gt;&lt;/font&gt;" style="rounded=0;whiteSpace=wrap;html=1;movable=1;resizable=1;rotatable=1;deletable=1;editable=1;locked=0;connectable=1;" parent="3wvi0kcAIpPuui1gEmCT-78" vertex="1">
          <mxGeometry width="180" height="90" as="geometry" />
        </mxCell>
        <mxCell id="3wvi0kcAIpPuui1gEmCT-80" value="&lt;font face=&quot;Times New Roman&quot;&gt;&lt;span style=&quot;font-size: 14px;&quot;&gt;8&lt;/span&gt;&lt;/font&gt;" style="rounded=0;whiteSpace=wrap;html=1;movable=1;resizable=1;rotatable=1;deletable=1;editable=1;locked=0;connectable=1;" parent="3wvi0kcAIpPuui1gEmCT-78" vertex="1">
          <mxGeometry x="60" width="60.00000000000001" height="30.000000000000004" as="geometry" />
        </mxCell>
        <mxCell id="3wvi0kcAIpPuui1gEmCT-81" value="" style="group" parent="1" vertex="1" connectable="0">
          <mxGeometry x="30" y="260" width="180" height="90" as="geometry" />
        </mxCell>
        <mxCell id="3wvi0kcAIpPuui1gEmCT-82" value="" style="group" parent="3wvi0kcAIpPuui1gEmCT-81" vertex="1" connectable="0">
          <mxGeometry width="180" height="90" as="geometry" />
        </mxCell>
        <mxCell id="3wvi0kcAIpPuui1gEmCT-83" value="" style="group" parent="3wvi0kcAIpPuui1gEmCT-82" vertex="1" connectable="0">
          <mxGeometry width="180" height="90" as="geometry" />
        </mxCell>
        <mxCell id="3wvi0kcAIpPuui1gEmCT-84" value="&lt;font face=&quot;Times New Roman&quot;&gt;&lt;span style=&quot;font-size: 16px;&quot;&gt;Сморгонь&lt;/span&gt;&lt;/font&gt;" style="rounded=0;whiteSpace=wrap;html=1;movable=1;resizable=1;rotatable=1;deletable=1;editable=1;locked=0;connectable=1;" parent="3wvi0kcAIpPuui1gEmCT-83" vertex="1">
          <mxGeometry width="180" height="90" as="geometry" />
        </mxCell>
        <mxCell id="3wvi0kcAIpPuui1gEmCT-85" value="&lt;font face=&quot;Times New Roman&quot; style=&quot;font-size: 14px;&quot;&gt;9&lt;/font&gt;" style="rounded=0;whiteSpace=wrap;html=1;movable=1;resizable=1;rotatable=1;deletable=1;editable=1;locked=0;connectable=1;" parent="3wvi0kcAIpPuui1gEmCT-83" vertex="1">
          <mxGeometry x="60" width="60.00000000000001" height="30.000000000000004" as="geometry" />
        </mxCell>
        <mxCell id="3wvi0kcAIpPuui1gEmCT-86" value="" style="group" parent="1" vertex="1" connectable="0">
          <mxGeometry x="230" y="260" width="180" height="90" as="geometry" />
        </mxCell>
        <mxCell id="3wvi0kcAIpPuui1gEmCT-87" value="&lt;font face=&quot;Times New Roman&quot; style=&quot;font-size: 16px;&quot;&gt;Барановичи&lt;/font&gt;" style="rounded=0;whiteSpace=wrap;html=1;movable=1;resizable=1;rotatable=1;deletable=1;editable=1;locked=0;connectable=1;" parent="3wvi0kcAIpPuui1gEmCT-86" vertex="1">
          <mxGeometry width="180" height="90" as="geometry" />
        </mxCell>
        <mxCell id="3wvi0kcAIpPuui1gEmCT-88" value="&lt;font face=&quot;Times New Roman&quot; style=&quot;font-size: 14px;&quot;&gt;10&lt;/font&gt;" style="rounded=0;whiteSpace=wrap;html=1;movable=1;resizable=1;rotatable=1;deletable=1;editable=1;locked=0;connectable=1;" parent="3wvi0kcAIpPuui1gEmCT-86" vertex="1">
          <mxGeometry x="60" width="60.00000000000001" height="30.000000000000004" as="geometry" />
        </mxCell>
      </root>
    </mxGraphModel>
  </diagram>
  <diagram id="XTxBVJDKm-QedY_-0BoC" name="Станции">
    <mxGraphModel dx="1283" dy="535" grid="1" gridSize="10" guides="1" tooltips="1" connect="1" arrows="1" fold="1" page="1" pageScale="1" pageWidth="850" pageHeight="1100" math="0" shadow="0">
      <root>
        <mxCell id="0" />
        <mxCell id="1" parent="0" />
        <mxCell id="cDAiwFoL0pdVmDAMkeIU-3" value="" style="group" parent="1" vertex="1" connectable="0">
          <mxGeometry x="40" y="30" width="170" height="130" as="geometry" />
        </mxCell>
        <mxCell id="cDAiwFoL0pdVmDAMkeIU-1" value="&lt;font face=&quot;Times New Roman&quot; style=&quot;font-size: 16px;&quot;&gt;Автостанция 1&lt;/font&gt;&lt;div&gt;&lt;font face=&quot;Times New Roman&quot; style=&quot;font-size: 16px;&quot;&gt;Минск&lt;/font&gt;&lt;/div&gt;" style="ellipse;whiteSpace=wrap;html=1;" parent="cDAiwFoL0pdVmDAMkeIU-3" vertex="1">
          <mxGeometry width="170" height="130" as="geometry" />
        </mxCell>
        <mxCell id="cDAiwFoL0pdVmDAMkeIU-2" value="&lt;font face=&quot;Times New Roman&quot; style=&quot;font-size: 14px;&quot;&gt;1&lt;/font&gt;" style="ellipse;whiteSpace=wrap;html=1;" parent="cDAiwFoL0pdVmDAMkeIU-3" vertex="1">
          <mxGeometry x="55" width="60" height="40" as="geometry" />
        </mxCell>
        <mxCell id="cDAiwFoL0pdVmDAMkeIU-4" value="" style="group" parent="1" vertex="1" connectable="0">
          <mxGeometry x="240" y="30" width="170" height="130" as="geometry" />
        </mxCell>
        <mxCell id="cDAiwFoL0pdVmDAMkeIU-5" value="&lt;font style=&quot;font-size: 16px;&quot; face=&quot;Times New Roman&quot;&gt;Автостанция 2&lt;/font&gt;&lt;div&gt;&lt;font style=&quot;font-size: 16px;&quot; face=&quot;Times New Roman&quot;&gt;Минск&lt;/font&gt;&lt;/div&gt;" style="ellipse;whiteSpace=wrap;html=1;" parent="cDAiwFoL0pdVmDAMkeIU-4" vertex="1">
          <mxGeometry width="170" height="130" as="geometry" />
        </mxCell>
        <mxCell id="cDAiwFoL0pdVmDAMkeIU-6" value="&lt;font face=&quot;Times New Roman&quot; style=&quot;font-size: 14px;&quot;&gt;2&lt;/font&gt;" style="ellipse;whiteSpace=wrap;html=1;" parent="cDAiwFoL0pdVmDAMkeIU-4" vertex="1">
          <mxGeometry x="55" width="60" height="40" as="geometry" />
        </mxCell>
        <mxCell id="cDAiwFoL0pdVmDAMkeIU-9" value="" style="group" parent="1" vertex="1" connectable="0">
          <mxGeometry x="40" y="180" width="170" height="130" as="geometry" />
        </mxCell>
        <mxCell id="cDAiwFoL0pdVmDAMkeIU-10" value="&lt;font style=&quot;font-size: 16px;&quot; face=&quot;Times New Roman&quot;&gt;Автостанция&amp;nbsp;&lt;/font&gt;&lt;div&gt;&lt;font style=&quot;font-size: 16px;&quot; face=&quot;Times New Roman&quot;&gt;Гродно&lt;/font&gt;&lt;/div&gt;" style="ellipse;whiteSpace=wrap;html=1;" parent="cDAiwFoL0pdVmDAMkeIU-9" vertex="1">
          <mxGeometry width="170" height="130" as="geometry" />
        </mxCell>
        <mxCell id="cDAiwFoL0pdVmDAMkeIU-11" value="&lt;font face=&quot;Times New Roman&quot; style=&quot;font-size: 14px;&quot;&gt;5&lt;/font&gt;" style="ellipse;whiteSpace=wrap;html=1;" parent="cDAiwFoL0pdVmDAMkeIU-9" vertex="1">
          <mxGeometry x="55" width="60" height="40" as="geometry" />
        </mxCell>
        <mxCell id="cDAiwFoL0pdVmDAMkeIU-12" value="" style="group" parent="1" vertex="1" connectable="0">
          <mxGeometry x="240" y="180" width="170" height="130" as="geometry" />
        </mxCell>
        <mxCell id="cDAiwFoL0pdVmDAMkeIU-13" value="&lt;font style=&quot;font-size: 16px;&quot; face=&quot;Times New Roman&quot;&gt;Железнодорожная&lt;/font&gt;&lt;div&gt;&lt;font style=&quot;font-size: 16px;&quot; face=&quot;Times New Roman&quot;&gt;станция Брест&lt;/font&gt;&lt;/div&gt;" style="ellipse;whiteSpace=wrap;html=1;" parent="cDAiwFoL0pdVmDAMkeIU-12" vertex="1">
          <mxGeometry width="170" height="130" as="geometry" />
        </mxCell>
        <mxCell id="cDAiwFoL0pdVmDAMkeIU-14" value="&lt;font face=&quot;Times New Roman&quot; style=&quot;font-size: 14px;&quot;&gt;6&lt;/font&gt;" style="ellipse;whiteSpace=wrap;html=1;" parent="cDAiwFoL0pdVmDAMkeIU-12" vertex="1">
          <mxGeometry x="55" width="60" height="40" as="geometry" />
        </mxCell>
        <mxCell id="cDAiwFoL0pdVmDAMkeIU-17" value="" style="group" parent="1" vertex="1" connectable="0">
          <mxGeometry x="40" y="330" width="170" height="130" as="geometry" />
        </mxCell>
        <mxCell id="cDAiwFoL0pdVmDAMkeIU-18" value="&lt;font style=&quot;font-size: 16px;&quot; face=&quot;Times New Roman&quot;&gt;Автостанция&amp;nbsp;&lt;/font&gt;&lt;div&gt;&lt;font style=&quot;font-size: 16px;&quot; face=&quot;Times New Roman&quot;&gt;Витебск&lt;/font&gt;&lt;/div&gt;" style="ellipse;whiteSpace=wrap;html=1;" parent="cDAiwFoL0pdVmDAMkeIU-17" vertex="1">
          <mxGeometry width="170" height="130" as="geometry" />
        </mxCell>
        <mxCell id="cDAiwFoL0pdVmDAMkeIU-19" value="&lt;font face=&quot;Times New Roman&quot; style=&quot;font-size: 14px;&quot;&gt;9&lt;/font&gt;" style="ellipse;whiteSpace=wrap;html=1;" parent="cDAiwFoL0pdVmDAMkeIU-17" vertex="1">
          <mxGeometry x="55" width="60" height="40" as="geometry" />
        </mxCell>
        <mxCell id="cDAiwFoL0pdVmDAMkeIU-20" value="" style="group" parent="1" vertex="1" connectable="0">
          <mxGeometry x="240" y="330" width="170" height="130" as="geometry" />
        </mxCell>
        <mxCell id="cDAiwFoL0pdVmDAMkeIU-21" value="&lt;font style=&quot;font-size: 16px;&quot; face=&quot;Times New Roman&quot;&gt;Автостанция&lt;/font&gt;&lt;div&gt;&lt;font style=&quot;font-size: 16px;&quot; face=&quot;Times New Roman&quot;&gt;Гомель&lt;/font&gt;&lt;/div&gt;" style="ellipse;whiteSpace=wrap;html=1;" parent="cDAiwFoL0pdVmDAMkeIU-20" vertex="1">
          <mxGeometry width="170" height="130" as="geometry" />
        </mxCell>
        <mxCell id="cDAiwFoL0pdVmDAMkeIU-22" value="&lt;font face=&quot;Times New Roman&quot; style=&quot;font-size: 14px;&quot;&gt;10&lt;/font&gt;" style="ellipse;whiteSpace=wrap;html=1;" parent="cDAiwFoL0pdVmDAMkeIU-20" vertex="1">
          <mxGeometry x="55" width="60" height="40" as="geometry" />
        </mxCell>
        <mxCell id="cDAiwFoL0pdVmDAMkeIU-25" value="" style="group" parent="1" vertex="1" connectable="0">
          <mxGeometry x="440" y="30" width="170" height="130" as="geometry" />
        </mxCell>
        <mxCell id="cDAiwFoL0pdVmDAMkeIU-26" value="&lt;font style=&quot;font-size: 16px;&quot; face=&quot;Times New Roman&quot;&gt;Железнодорожная&lt;/font&gt;&lt;div&gt;&lt;font style=&quot;font-size: 16px;&quot; face=&quot;Times New Roman&quot;&gt;станция Минск&lt;/font&gt;&lt;/div&gt;" style="ellipse;whiteSpace=wrap;html=1;" parent="cDAiwFoL0pdVmDAMkeIU-25" vertex="1">
          <mxGeometry width="170" height="130" as="geometry" />
        </mxCell>
        <mxCell id="cDAiwFoL0pdVmDAMkeIU-27" value="&lt;font face=&quot;Times New Roman&quot; style=&quot;font-size: 14px;&quot;&gt;3&lt;/font&gt;" style="ellipse;whiteSpace=wrap;html=1;" parent="cDAiwFoL0pdVmDAMkeIU-25" vertex="1">
          <mxGeometry x="55" width="60" height="40" as="geometry" />
        </mxCell>
        <mxCell id="cDAiwFoL0pdVmDAMkeIU-28" value="" style="group" parent="1" vertex="1" connectable="0">
          <mxGeometry x="640" y="30" width="170" height="130" as="geometry" />
        </mxCell>
        <mxCell id="cDAiwFoL0pdVmDAMkeIU-29" value="&lt;font style=&quot;font-size: 16px;&quot; face=&quot;Times New Roman&quot;&gt;Железнодорожная&lt;/font&gt;&lt;div&gt;&lt;font style=&quot;font-size: 16px;&quot; face=&quot;Times New Roman&quot;&gt;станция Гродно&lt;/font&gt;&lt;/div&gt;" style="ellipse;whiteSpace=wrap;html=1;" parent="cDAiwFoL0pdVmDAMkeIU-28" vertex="1">
          <mxGeometry width="170" height="130" as="geometry" />
        </mxCell>
        <mxCell id="cDAiwFoL0pdVmDAMkeIU-30" value="&lt;font face=&quot;Times New Roman&quot; style=&quot;font-size: 14px;&quot;&gt;4&lt;/font&gt;" style="ellipse;whiteSpace=wrap;html=1;" parent="cDAiwFoL0pdVmDAMkeIU-28" vertex="1">
          <mxGeometry x="55" width="60" height="40" as="geometry" />
        </mxCell>
        <mxCell id="cDAiwFoL0pdVmDAMkeIU-31" value="" style="group" parent="1" vertex="1" connectable="0">
          <mxGeometry x="440" y="180" width="170" height="130" as="geometry" />
        </mxCell>
        <mxCell id="cDAiwFoL0pdVmDAMkeIU-32" value="&lt;font style=&quot;font-size: 16px;&quot; face=&quot;Times New Roman&quot;&gt;Автостанция&amp;nbsp;&lt;/font&gt;&lt;div&gt;&lt;font style=&quot;font-size: 16px;&quot; face=&quot;Times New Roman&quot;&gt;Брест&lt;/font&gt;&lt;/div&gt;" style="ellipse;whiteSpace=wrap;html=1;" parent="cDAiwFoL0pdVmDAMkeIU-31" vertex="1">
          <mxGeometry width="170" height="130" as="geometry" />
        </mxCell>
        <mxCell id="cDAiwFoL0pdVmDAMkeIU-33" value="&lt;font face=&quot;Times New Roman&quot; style=&quot;font-size: 14px;&quot;&gt;7&lt;/font&gt;" style="ellipse;whiteSpace=wrap;html=1;" parent="cDAiwFoL0pdVmDAMkeIU-31" vertex="1">
          <mxGeometry x="55" width="60" height="40" as="geometry" />
        </mxCell>
        <mxCell id="cDAiwFoL0pdVmDAMkeIU-34" value="" style="group" parent="1" vertex="1" connectable="0">
          <mxGeometry x="640" y="180" width="170" height="130" as="geometry" />
        </mxCell>
        <mxCell id="cDAiwFoL0pdVmDAMkeIU-35" value="&lt;font style=&quot;font-size: 16px;&quot; face=&quot;Times New Roman&quot;&gt;Железнодорожная&lt;/font&gt;&lt;div&gt;&lt;font style=&quot;font-size: 16px;&quot; face=&quot;Times New Roman&quot;&gt;станция Витебск&lt;/font&gt;&lt;/div&gt;" style="ellipse;whiteSpace=wrap;html=1;" parent="cDAiwFoL0pdVmDAMkeIU-34" vertex="1">
          <mxGeometry width="170" height="130" as="geometry" />
        </mxCell>
        <mxCell id="cDAiwFoL0pdVmDAMkeIU-36" value="&lt;font face=&quot;Times New Roman&quot; style=&quot;font-size: 14px;&quot;&gt;8&lt;/font&gt;" style="ellipse;whiteSpace=wrap;html=1;" parent="cDAiwFoL0pdVmDAMkeIU-34" vertex="1">
          <mxGeometry x="55" width="60" height="40" as="geometry" />
        </mxCell>
      </root>
    </mxGraphModel>
  </diagram>
  <diagram id="ubCkxAWy6tgxAh7r-hoX" name="Маршруты">
    <mxGraphModel dx="1283" dy="2735" grid="1" gridSize="10" guides="1" tooltips="1" connect="1" arrows="1" fold="1" page="1" pageScale="1" pageWidth="850" pageHeight="1100" math="0" shadow="0">
      <root>
        <mxCell id="0" />
        <mxCell id="1" parent="0" />
        <mxCell id="AjVUMKlilgp0ESnhzVmI-3" value="" style="group" parent="1" vertex="1" connectable="0">
          <mxGeometry x="30" y="-2170" width="170" height="100" as="geometry" />
        </mxCell>
        <mxCell id="AjVUMKlilgp0ESnhzVmI-1" value="&lt;font face=&quot;Times New Roman&quot;&gt;&lt;span style=&quot;font-size: 16px;&quot;&gt;0023&lt;/span&gt;&lt;/font&gt;" style="shape=hexagon;perimeter=hexagonPerimeter2;whiteSpace=wrap;html=1;fixedSize=1;" parent="AjVUMKlilgp0ESnhzVmI-3" vertex="1">
          <mxGeometry width="170" height="100" as="geometry" />
        </mxCell>
        <mxCell id="AjVUMKlilgp0ESnhzVmI-2" value="&lt;font face=&quot;Times New Roman&quot; style=&quot;font-size: 14px;&quot;&gt;1&lt;/font&gt;" style="shape=hexagon;perimeter=hexagonPerimeter2;whiteSpace=wrap;html=1;fixedSize=1;" parent="AjVUMKlilgp0ESnhzVmI-3" vertex="1">
          <mxGeometry x="54.09" width="61.82" height="30" as="geometry" />
        </mxCell>
        <mxCell id="OWYfTBaAOQgAK-0S-6aG-7" value="" style="group" parent="1" vertex="1" connectable="0">
          <mxGeometry x="230" y="-2170" width="170" height="100" as="geometry" />
        </mxCell>
        <mxCell id="OWYfTBaAOQgAK-0S-6aG-8" value="&lt;div&gt;&lt;font face=&quot;Times New Roman&quot;&gt;&lt;span style=&quot;font-size: 16px;&quot;&gt;0078&lt;/span&gt;&lt;/font&gt;&lt;/div&gt;" style="shape=hexagon;perimeter=hexagonPerimeter2;whiteSpace=wrap;html=1;fixedSize=1;" parent="OWYfTBaAOQgAK-0S-6aG-7" vertex="1">
          <mxGeometry width="170" height="100" as="geometry" />
        </mxCell>
        <mxCell id="OWYfTBaAOQgAK-0S-6aG-9" value="&lt;font face=&quot;Times New Roman&quot; style=&quot;font-size: 14px;&quot;&gt;2&lt;/font&gt;" style="shape=hexagon;perimeter=hexagonPerimeter2;whiteSpace=wrap;html=1;fixedSize=1;" parent="OWYfTBaAOQgAK-0S-6aG-7" vertex="1">
          <mxGeometry x="54.09" width="61.82" height="30" as="geometry" />
        </mxCell>
        <mxCell id="OWYfTBaAOQgAK-0S-6aG-10" value="" style="group;" parent="1" vertex="1" connectable="0">
          <mxGeometry x="430" y="-2170" width="170" height="100" as="geometry" />
        </mxCell>
        <mxCell id="OWYfTBaAOQgAK-0S-6aG-11" value="&lt;span style=&quot;font-family: &amp;quot;Times New Roman&amp;quot;; font-size: 16px;&quot;&gt;0165&lt;/span&gt;" style="shape=hexagon;perimeter=hexagonPerimeter2;whiteSpace=wrap;html=1;fixedSize=1;" parent="OWYfTBaAOQgAK-0S-6aG-10" vertex="1">
          <mxGeometry width="170" height="100" as="geometry" />
        </mxCell>
        <mxCell id="OWYfTBaAOQgAK-0S-6aG-12" value="&lt;font face=&quot;Times New Roman&quot; style=&quot;font-size: 14px;&quot;&gt;3&lt;/font&gt;" style="shape=hexagon;perimeter=hexagonPerimeter2;whiteSpace=wrap;html=1;fixedSize=1;" parent="OWYfTBaAOQgAK-0S-6aG-10" vertex="1">
          <mxGeometry x="54.09" width="61.82" height="30" as="geometry" />
        </mxCell>
        <mxCell id="OWYfTBaAOQgAK-0S-6aG-13" value="" style="group" parent="1" vertex="1" connectable="0">
          <mxGeometry x="630" y="-2170" width="170" height="100" as="geometry" />
        </mxCell>
        <mxCell id="OWYfTBaAOQgAK-0S-6aG-14" value="&lt;span style=&quot;font-family: &amp;quot;Times New Roman&amp;quot;; font-size: 16px;&quot;&gt;0003&lt;/span&gt;" style="shape=hexagon;perimeter=hexagonPerimeter2;whiteSpace=wrap;html=1;fixedSize=1;" parent="OWYfTBaAOQgAK-0S-6aG-13" vertex="1">
          <mxGeometry width="170" height="100" as="geometry" />
        </mxCell>
        <mxCell id="OWYfTBaAOQgAK-0S-6aG-15" value="&lt;font face=&quot;Times New Roman&quot; style=&quot;font-size: 14px;&quot;&gt;4&lt;/font&gt;" style="shape=hexagon;perimeter=hexagonPerimeter2;whiteSpace=wrap;html=1;fixedSize=1;" parent="OWYfTBaAOQgAK-0S-6aG-13" vertex="1">
          <mxGeometry x="54.09" width="61.82" height="30" as="geometry" />
        </mxCell>
        <mxCell id="OWYfTBaAOQgAK-0S-6aG-16" value="" style="group" parent="1" vertex="1" connectable="0">
          <mxGeometry x="30" y="-2050" width="170" height="100" as="geometry" />
        </mxCell>
        <mxCell id="OWYfTBaAOQgAK-0S-6aG-17" value="&lt;span style=&quot;font-family: &amp;quot;Times New Roman&amp;quot;; font-size: 16px;&quot;&gt;0111&lt;/span&gt;" style="shape=hexagon;perimeter=hexagonPerimeter2;whiteSpace=wrap;html=1;fixedSize=1;" parent="OWYfTBaAOQgAK-0S-6aG-16" vertex="1">
          <mxGeometry width="170" height="100" as="geometry" />
        </mxCell>
        <mxCell id="OWYfTBaAOQgAK-0S-6aG-18" value="&lt;font face=&quot;Times New Roman&quot; style=&quot;font-size: 14px;&quot;&gt;5&lt;/font&gt;" style="shape=hexagon;perimeter=hexagonPerimeter2;whiteSpace=wrap;html=1;fixedSize=1;" parent="OWYfTBaAOQgAK-0S-6aG-16" vertex="1">
          <mxGeometry x="54.09" width="61.82" height="30" as="geometry" />
        </mxCell>
        <mxCell id="OWYfTBaAOQgAK-0S-6aG-19" value="" style="group" parent="1" vertex="1" connectable="0">
          <mxGeometry x="230" y="-2050" width="170" height="100" as="geometry" />
        </mxCell>
        <mxCell id="OWYfTBaAOQgAK-0S-6aG-20" value="&lt;span style=&quot;font-family: &amp;quot;Times New Roman&amp;quot;; font-size: 16px;&quot;&gt;0037&lt;/span&gt;" style="shape=hexagon;perimeter=hexagonPerimeter2;whiteSpace=wrap;html=1;fixedSize=1;" parent="OWYfTBaAOQgAK-0S-6aG-19" vertex="1">
          <mxGeometry width="170" height="100" as="geometry" />
        </mxCell>
        <mxCell id="OWYfTBaAOQgAK-0S-6aG-21" value="&lt;font face=&quot;Times New Roman&quot; style=&quot;font-size: 14px;&quot;&gt;6&lt;/font&gt;" style="shape=hexagon;perimeter=hexagonPerimeter2;whiteSpace=wrap;html=1;fixedSize=1;" parent="OWYfTBaAOQgAK-0S-6aG-19" vertex="1">
          <mxGeometry x="54.09" width="61.82" height="30" as="geometry" />
        </mxCell>
        <mxCell id="OWYfTBaAOQgAK-0S-6aG-22" value="" style="group" parent="1" vertex="1" connectable="0">
          <mxGeometry x="430" y="-2050" width="170" height="100" as="geometry" />
        </mxCell>
        <mxCell id="OWYfTBaAOQgAK-0S-6aG-23" value="&lt;span style=&quot;font-family: &amp;quot;Times New Roman&amp;quot;; font-size: 16px;&quot;&gt;0089&lt;/span&gt;" style="shape=hexagon;perimeter=hexagonPerimeter2;whiteSpace=wrap;html=1;fixedSize=1;" parent="OWYfTBaAOQgAK-0S-6aG-22" vertex="1">
          <mxGeometry width="170" height="100" as="geometry" />
        </mxCell>
        <mxCell id="OWYfTBaAOQgAK-0S-6aG-24" value="&lt;font face=&quot;Times New Roman&quot; style=&quot;font-size: 14px;&quot;&gt;7&lt;/font&gt;" style="shape=hexagon;perimeter=hexagonPerimeter2;whiteSpace=wrap;html=1;fixedSize=1;" parent="OWYfTBaAOQgAK-0S-6aG-22" vertex="1">
          <mxGeometry x="54.09" width="61.82" height="30" as="geometry" />
        </mxCell>
        <mxCell id="OWYfTBaAOQgAK-0S-6aG-28" value="" style="group;" parent="1" vertex="1" connectable="0">
          <mxGeometry x="630" y="-2050" width="190" height="100" as="geometry" />
        </mxCell>
        <mxCell id="OWYfTBaAOQgAK-0S-6aG-29" value="&lt;span style=&quot;font-family: &amp;quot;Times New Roman&amp;quot;; font-size: 16px;&quot;&gt;0031&lt;/span&gt;" style="shape=hexagon;perimeter=hexagonPerimeter2;whiteSpace=wrap;html=1;fixedSize=1;" parent="OWYfTBaAOQgAK-0S-6aG-28" vertex="1">
          <mxGeometry width="170" height="100" as="geometry" />
        </mxCell>
        <mxCell id="OWYfTBaAOQgAK-0S-6aG-30" value="&lt;font face=&quot;Times New Roman&quot; style=&quot;font-size: 14px;&quot;&gt;8&lt;/font&gt;" style="shape=hexagon;perimeter=hexagonPerimeter2;whiteSpace=wrap;html=1;fixedSize=1;" parent="OWYfTBaAOQgAK-0S-6aG-28" vertex="1">
          <mxGeometry x="60.45352941176471" width="69.09294117647059" height="30" as="geometry" />
        </mxCell>
        <mxCell id="NNtOwkgr23DRFd3tSzw4-1" value="" style="group" vertex="1" connectable="0" parent="1">
          <mxGeometry x="230" y="-1930" width="170" height="100" as="geometry" />
        </mxCell>
        <mxCell id="NNtOwkgr23DRFd3tSzw4-2" value="0106" style="shape=hexagon;perimeter=hexagonPerimeter2;whiteSpace=wrap;html=1;fixedSize=1;" vertex="1" parent="NNtOwkgr23DRFd3tSzw4-1">
          <mxGeometry width="170" height="100" as="geometry" />
        </mxCell>
        <mxCell id="NNtOwkgr23DRFd3tSzw4-3" value="&lt;font face=&quot;Times New Roman&quot; style=&quot;font-size: 14px;&quot;&gt;10&lt;/font&gt;" style="shape=hexagon;perimeter=hexagonPerimeter2;whiteSpace=wrap;html=1;fixedSize=1;" vertex="1" parent="NNtOwkgr23DRFd3tSzw4-1">
          <mxGeometry x="54.09" width="61.82" height="30" as="geometry" />
        </mxCell>
        <mxCell id="NNtOwkgr23DRFd3tSzw4-4" value="" style="group" vertex="1" connectable="0" parent="1">
          <mxGeometry x="30" y="-1930" width="170" height="100" as="geometry" />
        </mxCell>
        <mxCell id="NNtOwkgr23DRFd3tSzw4-5" value="&lt;span style=&quot;font-family: &amp;quot;Times New Roman&amp;quot;; font-size: 16px;&quot;&gt;0019&lt;/span&gt;" style="shape=hexagon;perimeter=hexagonPerimeter2;whiteSpace=wrap;html=1;fixedSize=1;" vertex="1" parent="NNtOwkgr23DRFd3tSzw4-4">
          <mxGeometry width="170" height="100" as="geometry" />
        </mxCell>
        <mxCell id="NNtOwkgr23DRFd3tSzw4-6" value="&lt;font face=&quot;Times New Roman&quot; style=&quot;font-size: 14px;&quot;&gt;9&lt;/font&gt;" style="shape=hexagon;perimeter=hexagonPerimeter2;whiteSpace=wrap;html=1;fixedSize=1;" vertex="1" parent="NNtOwkgr23DRFd3tSzw4-4">
          <mxGeometry x="54.09" width="61.82" height="30" as="geometry" />
        </mxCell>
      </root>
    </mxGraphModel>
  </diagram>
  <diagram id="KcT0E21txZGhkkX47jvZ" name="Транспорт">
    <mxGraphModel dx="1283" dy="535" grid="1" gridSize="10" guides="1" tooltips="1" connect="1" arrows="1" fold="1" page="1" pageScale="1" pageWidth="850" pageHeight="1100" math="0" shadow="0">
      <root>
        <mxCell id="0" />
        <mxCell id="1" parent="0" />
        <mxCell id="kUEWaUUmq19tg5iHSMB5-3" value="" style="group" parent="1" vertex="1" connectable="0">
          <mxGeometry x="30" y="40" width="180" height="90" as="geometry" />
        </mxCell>
        <mxCell id="kUEWaUUmq19tg5iHSMB5-1" value="&lt;font face=&quot;Times New Roman&quot;&gt;&lt;span style=&quot;font-size: 16px;&quot;&gt;2303RK&lt;/span&gt;&lt;/font&gt;&lt;div&gt;&lt;font face=&quot;Times New Roman&quot;&gt;&lt;span style=&quot;font-size: 16px;&quot;&gt;Сar&lt;/span&gt;&lt;/font&gt;&lt;/div&gt;" style="shape=parallelogram;perimeter=parallelogramPerimeter;whiteSpace=wrap;html=1;fixedSize=1;" parent="kUEWaUUmq19tg5iHSMB5-3" vertex="1">
          <mxGeometry width="180" height="90" as="geometry" />
        </mxCell>
        <mxCell id="kUEWaUUmq19tg5iHSMB5-2" value="&lt;font face=&quot;Times New Roman&quot; style=&quot;font-size: 14px;&quot;&gt;1&lt;/font&gt;" style="shape=parallelogram;perimeter=parallelogramPerimeter;whiteSpace=wrap;html=1;fixedSize=1;" parent="kUEWaUUmq19tg5iHSMB5-3" vertex="1">
          <mxGeometry x="55" width="70" height="20" as="geometry" />
        </mxCell>
        <mxCell id="zT7q6gkJn98o4biGaLBr-1" style="edgeStyle=orthogonalEdgeStyle;rounded=0;orthogonalLoop=1;jettySize=auto;html=1;exitX=0.5;exitY=1;exitDx=0;exitDy=0;" edge="1" parent="kUEWaUUmq19tg5iHSMB5-3" source="kUEWaUUmq19tg5iHSMB5-2" target="kUEWaUUmq19tg5iHSMB5-2">
          <mxGeometry relative="1" as="geometry" />
        </mxCell>
        <mxCell id="kUEWaUUmq19tg5iHSMB5-4" value="" style="group" parent="1" vertex="1" connectable="0">
          <mxGeometry x="230" y="40" width="180" height="90" as="geometry" />
        </mxCell>
        <mxCell id="kUEWaUUmq19tg5iHSMB5-5" value="&lt;font face=&quot;Times New Roman&quot;&gt;&lt;span style=&quot;font-size: 16px;&quot;&gt;4817TZ&lt;/span&gt;&lt;/font&gt;&lt;div&gt;&lt;font face=&quot;Times New Roman&quot;&gt;&lt;span style=&quot;font-size: 16px;&quot;&gt;Car&lt;/span&gt;&lt;/font&gt;&lt;/div&gt;" style="shape=parallelogram;perimeter=parallelogramPerimeter;whiteSpace=wrap;html=1;fixedSize=1;" parent="kUEWaUUmq19tg5iHSMB5-4" vertex="1">
          <mxGeometry width="180" height="90" as="geometry" />
        </mxCell>
        <mxCell id="kUEWaUUmq19tg5iHSMB5-6" value="&lt;font face=&quot;Times New Roman&quot; style=&quot;font-size: 14px;&quot;&gt;2&lt;/font&gt;" style="shape=parallelogram;perimeter=parallelogramPerimeter;whiteSpace=wrap;html=1;fixedSize=1;" parent="kUEWaUUmq19tg5iHSMB5-4" vertex="1">
          <mxGeometry x="55" width="70" height="20" as="geometry" />
        </mxCell>
        <mxCell id="kUEWaUUmq19tg5iHSMB5-49" value="" style="group" parent="1" vertex="1" connectable="0">
          <mxGeometry x="430" y="40" width="180" height="90" as="geometry" />
        </mxCell>
        <mxCell id="kUEWaUUmq19tg5iHSMB5-50" value="&lt;font face=&quot;Times New Roman&quot;&gt;&lt;span style=&quot;font-size: 16px;&quot;&gt;3952LM&lt;/span&gt;&lt;/font&gt;&lt;div&gt;&lt;font face=&quot;Times New Roman&quot;&gt;&lt;span style=&quot;font-size: 16px;&quot;&gt;Car&lt;/span&gt;&lt;/font&gt;&lt;/div&gt;" style="shape=parallelogram;perimeter=parallelogramPerimeter;whiteSpace=wrap;html=1;fixedSize=1;" parent="kUEWaUUmq19tg5iHSMB5-49" vertex="1">
          <mxGeometry width="180" height="90" as="geometry" />
        </mxCell>
        <mxCell id="kUEWaUUmq19tg5iHSMB5-51" value="&lt;font face=&quot;Times New Roman&quot; style=&quot;font-size: 14px;&quot;&gt;3&lt;/font&gt;" style="shape=parallelogram;perimeter=parallelogramPerimeter;whiteSpace=wrap;html=1;fixedSize=1;" parent="kUEWaUUmq19tg5iHSMB5-49" vertex="1">
          <mxGeometry x="55" width="70" height="20" as="geometry" />
        </mxCell>
        <mxCell id="kUEWaUUmq19tg5iHSMB5-52" value="" style="group" parent="1" vertex="1" connectable="0">
          <mxGeometry x="630" y="40" width="180" height="90" as="geometry" />
        </mxCell>
        <mxCell id="kUEWaUUmq19tg5iHSMB5-53" value="&lt;font face=&quot;Times New Roman&quot;&gt;&lt;span style=&quot;font-size: 16px;&quot;&gt;7630BD&lt;/span&gt;&lt;/font&gt;&lt;div&gt;&lt;font face=&quot;Times New Roman&quot;&gt;&lt;span style=&quot;font-size: 16px;&quot;&gt;Car&lt;/span&gt;&lt;/font&gt;&lt;/div&gt;" style="shape=parallelogram;perimeter=parallelogramPerimeter;whiteSpace=wrap;html=1;fixedSize=1;" parent="kUEWaUUmq19tg5iHSMB5-52" vertex="1">
          <mxGeometry width="180" height="90" as="geometry" />
        </mxCell>
        <mxCell id="kUEWaUUmq19tg5iHSMB5-54" value="&lt;font face=&quot;Times New Roman&quot; style=&quot;font-size: 14px;&quot;&gt;4&lt;/font&gt;" style="shape=parallelogram;perimeter=parallelogramPerimeter;whiteSpace=wrap;html=1;fixedSize=1;" parent="kUEWaUUmq19tg5iHSMB5-52" vertex="1">
          <mxGeometry x="55" width="70" height="20" as="geometry" />
        </mxCell>
        <mxCell id="kUEWaUUmq19tg5iHSMB5-55" value="" style="group" parent="1" vertex="1" connectable="0">
          <mxGeometry x="20" y="150" width="180" height="90" as="geometry" />
        </mxCell>
        <mxCell id="kUEWaUUmq19tg5iHSMB5-56" value="&lt;font face=&quot;Times New Roman&quot;&gt;&lt;span style=&quot;font-size: 16px;&quot;&gt;1284QS&lt;/span&gt;&lt;/font&gt;&lt;div&gt;&lt;font face=&quot;Times New Roman&quot;&gt;&lt;span style=&quot;font-size: 16px;&quot;&gt;Bus&lt;/span&gt;&lt;/font&gt;&lt;/div&gt;" style="shape=parallelogram;perimeter=parallelogramPerimeter;whiteSpace=wrap;html=1;fixedSize=1;" parent="kUEWaUUmq19tg5iHSMB5-55" vertex="1">
          <mxGeometry width="180" height="90" as="geometry" />
        </mxCell>
        <mxCell id="kUEWaUUmq19tg5iHSMB5-57" value="&lt;font face=&quot;Times New Roman&quot; style=&quot;font-size: 14px;&quot;&gt;5&lt;/font&gt;" style="shape=parallelogram;perimeter=parallelogramPerimeter;whiteSpace=wrap;html=1;fixedSize=1;" parent="kUEWaUUmq19tg5iHSMB5-55" vertex="1">
          <mxGeometry x="50" width="75" height="20" as="geometry" />
        </mxCell>
        <mxCell id="kUEWaUUmq19tg5iHSMB5-58" value="" style="group" parent="1" vertex="1" connectable="0">
          <mxGeometry x="220" y="150" width="180" height="90" as="geometry" />
        </mxCell>
        <mxCell id="kUEWaUUmq19tg5iHSMB5-59" value="&lt;font face=&quot;Times New Roman&quot;&gt;&lt;span style=&quot;font-size: 16px;&quot;&gt;9075XE&lt;/span&gt;&lt;/font&gt;&lt;div&gt;&lt;font face=&quot;Times New Roman&quot;&gt;&lt;span style=&quot;font-size: 16px;&quot;&gt;Bus&lt;/span&gt;&lt;/font&gt;&lt;/div&gt;" style="shape=parallelogram;perimeter=parallelogramPerimeter;whiteSpace=wrap;html=1;fixedSize=1;" parent="kUEWaUUmq19tg5iHSMB5-58" vertex="1">
          <mxGeometry width="180" height="90" as="geometry" />
        </mxCell>
        <mxCell id="kUEWaUUmq19tg5iHSMB5-60" value="&lt;font face=&quot;Times New Roman&quot; style=&quot;font-size: 14px;&quot;&gt;6&lt;/font&gt;" style="shape=parallelogram;perimeter=parallelogramPerimeter;whiteSpace=wrap;html=1;fixedSize=1;" parent="kUEWaUUmq19tg5iHSMB5-58" vertex="1">
          <mxGeometry x="55" width="70" height="20" as="geometry" />
        </mxCell>
        <mxCell id="kUEWaUUmq19tg5iHSMB5-61" value="" style="group" parent="1" vertex="1" connectable="0">
          <mxGeometry x="420" y="150" width="180" height="90" as="geometry" />
        </mxCell>
        <mxCell id="kUEWaUUmq19tg5iHSMB5-62" value="&lt;font face=&quot;Times New Roman&quot;&gt;&lt;span style=&quot;font-size: 16px;&quot;&gt;3142NG&lt;/span&gt;&lt;/font&gt;&lt;div&gt;&lt;font face=&quot;Times New Roman&quot;&gt;&lt;span style=&quot;font-size: 16px;&quot;&gt;Bus&lt;/span&gt;&lt;/font&gt;&lt;/div&gt;" style="shape=parallelogram;perimeter=parallelogramPerimeter;whiteSpace=wrap;html=1;fixedSize=1;" parent="kUEWaUUmq19tg5iHSMB5-61" vertex="1">
          <mxGeometry width="180" height="90" as="geometry" />
        </mxCell>
        <mxCell id="kUEWaUUmq19tg5iHSMB5-63" value="&lt;font face=&quot;Times New Roman&quot; style=&quot;font-size: 14px;&quot;&gt;7&lt;/font&gt;" style="shape=parallelogram;perimeter=parallelogramPerimeter;whiteSpace=wrap;html=1;fixedSize=1;" parent="kUEWaUUmq19tg5iHSMB5-61" vertex="1">
          <mxGeometry x="55" width="70" height="20" as="geometry" />
        </mxCell>
        <mxCell id="kUEWaUUmq19tg5iHSMB5-64" value="" style="group" parent="1" vertex="1" connectable="0">
          <mxGeometry x="620" y="150" width="180" height="90" as="geometry" />
        </mxCell>
        <mxCell id="kUEWaUUmq19tg5iHSMB5-65" value="&lt;font face=&quot;Times New Roman&quot;&gt;&lt;span style=&quot;font-size: 16px;&quot;&gt;6729HV&lt;/span&gt;&lt;/font&gt;&lt;div&gt;&lt;font face=&quot;Times New Roman&quot;&gt;&lt;span style=&quot;font-size: 16px;&quot;&gt;Train&lt;/span&gt;&lt;/font&gt;&lt;/div&gt;" style="shape=parallelogram;perimeter=parallelogramPerimeter;whiteSpace=wrap;html=1;fixedSize=1;" parent="kUEWaUUmq19tg5iHSMB5-64" vertex="1">
          <mxGeometry width="180" height="90" as="geometry" />
        </mxCell>
        <mxCell id="kUEWaUUmq19tg5iHSMB5-66" value="&lt;font face=&quot;Times New Roman&quot; style=&quot;font-size: 14px;&quot;&gt;8&lt;/font&gt;" style="shape=parallelogram;perimeter=parallelogramPerimeter;whiteSpace=wrap;html=1;fixedSize=1;" parent="kUEWaUUmq19tg5iHSMB5-64" vertex="1">
          <mxGeometry x="55" width="70" height="20" as="geometry" />
        </mxCell>
        <mxCell id="kUEWaUUmq19tg5iHSMB5-67" value="" style="group" parent="1" vertex="1" connectable="0">
          <mxGeometry x="20" y="260" width="180" height="90" as="geometry" />
        </mxCell>
        <mxCell id="kUEWaUUmq19tg5iHSMB5-68" value="&lt;font face=&quot;Times New Roman&quot;&gt;&lt;span style=&quot;font-size: 16px;&quot;&gt;5430AZ&lt;/span&gt;&lt;/font&gt;&lt;div&gt;&lt;font face=&quot;Times New Roman&quot;&gt;&lt;span style=&quot;font-size: 16px;&quot;&gt;Train&lt;/span&gt;&lt;/font&gt;&lt;/div&gt;" style="shape=parallelogram;perimeter=parallelogramPerimeter;whiteSpace=wrap;html=1;fixedSize=1;" parent="kUEWaUUmq19tg5iHSMB5-67" vertex="1">
          <mxGeometry width="180" height="90" as="geometry" />
        </mxCell>
        <mxCell id="kUEWaUUmq19tg5iHSMB5-69" value="&lt;font face=&quot;Times New Roman&quot; style=&quot;font-size: 14px;&quot;&gt;9&lt;/font&gt;" style="shape=parallelogram;perimeter=parallelogramPerimeter;whiteSpace=wrap;html=1;fixedSize=1;" parent="kUEWaUUmq19tg5iHSMB5-67" vertex="1">
          <mxGeometry x="55" width="70" height="20" as="geometry" />
        </mxCell>
        <mxCell id="kUEWaUUmq19tg5iHSMB5-70" value="" style="group" parent="1" vertex="1" connectable="0">
          <mxGeometry x="220" y="260" width="180" height="90" as="geometry" />
        </mxCell>
        <mxCell id="kUEWaUUmq19tg5iHSMB5-71" value="&lt;font face=&quot;Times New Roman&quot;&gt;&lt;span style=&quot;font-size: 16px;&quot;&gt;8091CY&lt;/span&gt;&lt;/font&gt;&lt;div&gt;&lt;font face=&quot;Times New Roman&quot;&gt;&lt;span style=&quot;font-size: 16px;&quot;&gt;Train&lt;/span&gt;&lt;/font&gt;&lt;/div&gt;" style="shape=parallelogram;perimeter=parallelogramPerimeter;whiteSpace=wrap;html=1;fixedSize=1;" parent="kUEWaUUmq19tg5iHSMB5-70" vertex="1">
          <mxGeometry width="180" height="90" as="geometry" />
        </mxCell>
        <mxCell id="kUEWaUUmq19tg5iHSMB5-72" value="&lt;font face=&quot;Times New Roman&quot; style=&quot;font-size: 14px;&quot;&gt;10&lt;/font&gt;" style="shape=parallelogram;perimeter=parallelogramPerimeter;whiteSpace=wrap;html=1;fixedSize=1;" parent="kUEWaUUmq19tg5iHSMB5-70" vertex="1">
          <mxGeometry x="55" width="70" height="20" as="geometry" />
        </mxCell>
      </root>
    </mxGraphModel>
  </diagram>
  <diagram id="zu6rTtI_lJ9_tL71uRQf" name="Сеть городов">
    <mxGraphModel dx="2110" dy="535" grid="1" gridSize="10" guides="1" tooltips="1" connect="1" arrows="1" fold="1" page="1" pageScale="1" pageWidth="827" pageHeight="1169" math="0" shadow="0">
      <root>
        <mxCell id="0" />
        <mxCell id="1" parent="0" />
        <mxCell id="PYVeNpmxs0I2fArVHN6x-1" value="" style="group" vertex="1" connectable="0" parent="1">
          <mxGeometry x="380" y="240" width="180" height="90" as="geometry" />
        </mxCell>
        <mxCell id="PYVeNpmxs0I2fArVHN6x-2" value="" style="group" vertex="1" connectable="0" parent="PYVeNpmxs0I2fArVHN6x-1">
          <mxGeometry width="180" height="90" as="geometry" />
        </mxCell>
        <mxCell id="PYVeNpmxs0I2fArVHN6x-3" value="" style="group" vertex="1" connectable="0" parent="PYVeNpmxs0I2fArVHN6x-2">
          <mxGeometry width="180" height="90" as="geometry" />
        </mxCell>
        <mxCell id="PYVeNpmxs0I2fArVHN6x-4" value="&lt;font face=&quot;Times New Roman&quot; style=&quot;font-size: 16px;&quot;&gt;Минск&lt;/font&gt;" style="rounded=0;whiteSpace=wrap;html=1;movable=1;resizable=1;rotatable=1;deletable=1;editable=1;locked=0;connectable=1;" vertex="1" parent="PYVeNpmxs0I2fArVHN6x-3">
          <mxGeometry width="180" height="90" as="geometry" />
        </mxCell>
        <mxCell id="PYVeNpmxs0I2fArVHN6x-5" value="&lt;font face=&quot;Times New Roman&quot; style=&quot;font-size: 14px;&quot;&gt;1&lt;/font&gt;" style="rounded=0;whiteSpace=wrap;html=1;movable=1;resizable=1;rotatable=1;deletable=1;editable=1;locked=0;connectable=1;" vertex="1" parent="PYVeNpmxs0I2fArVHN6x-3">
          <mxGeometry x="60" width="60.00000000000001" height="30.000000000000004" as="geometry" />
        </mxCell>
        <mxCell id="PYVeNpmxs0I2fArVHN6x-6" value="" style="group" vertex="1" connectable="0" parent="1">
          <mxGeometry x="130" y="140" width="180" height="90" as="geometry" />
        </mxCell>
        <mxCell id="PYVeNpmxs0I2fArVHN6x-7" value="&lt;font face=&quot;Times New Roman&quot; style=&quot;font-size: 16px;&quot;&gt;Гродно&lt;/font&gt;" style="rounded=0;whiteSpace=wrap;html=1;movable=1;resizable=1;rotatable=1;deletable=1;editable=1;locked=0;connectable=1;" vertex="1" parent="PYVeNpmxs0I2fArVHN6x-6">
          <mxGeometry width="180" height="90" as="geometry" />
        </mxCell>
        <mxCell id="PYVeNpmxs0I2fArVHN6x-8" value="&lt;font face=&quot;Times New Roman&quot; style=&quot;font-size: 14px;&quot;&gt;2&lt;/font&gt;" style="rounded=0;whiteSpace=wrap;html=1;movable=1;resizable=1;rotatable=1;deletable=1;editable=1;locked=0;connectable=1;" vertex="1" parent="PYVeNpmxs0I2fArVHN6x-6">
          <mxGeometry x="60" width="60.00000000000001" height="30.000000000000004" as="geometry" />
        </mxCell>
        <mxCell id="PYVeNpmxs0I2fArVHN6x-9" value="" style="group" vertex="1" connectable="0" parent="1">
          <mxGeometry x="90" y="280" width="180" height="90" as="geometry" />
        </mxCell>
        <mxCell id="PYVeNpmxs0I2fArVHN6x-10" value="" style="group" vertex="1" connectable="0" parent="PYVeNpmxs0I2fArVHN6x-9">
          <mxGeometry width="180" height="90" as="geometry" />
        </mxCell>
        <mxCell id="PYVeNpmxs0I2fArVHN6x-11" value="" style="group" vertex="1" connectable="0" parent="PYVeNpmxs0I2fArVHN6x-10">
          <mxGeometry width="180" height="90" as="geometry" />
        </mxCell>
        <mxCell id="PYVeNpmxs0I2fArVHN6x-12" value="&lt;font style=&quot;font-size: 14px;&quot;&gt;Брест&lt;/font&gt;" style="rounded=0;whiteSpace=wrap;html=1;movable=1;resizable=1;rotatable=1;deletable=1;editable=1;locked=0;connectable=1;" vertex="1" parent="PYVeNpmxs0I2fArVHN6x-11">
          <mxGeometry width="180" height="90" as="geometry" />
        </mxCell>
        <mxCell id="PYVeNpmxs0I2fArVHN6x-13" value="&lt;font face=&quot;Times New Roman&quot; style=&quot;font-size: 14px;&quot;&gt;3&lt;/font&gt;" style="rounded=0;whiteSpace=wrap;html=1;movable=1;resizable=1;rotatable=1;deletable=1;editable=1;locked=0;connectable=1;" vertex="1" parent="PYVeNpmxs0I2fArVHN6x-11">
          <mxGeometry x="60" width="60.00000000000001" height="30.000000000000004" as="geometry" />
        </mxCell>
        <mxCell id="PYVeNpmxs0I2fArVHN6x-14" value="" style="group" vertex="1" connectable="0" parent="1">
          <mxGeometry x="380" y="380" width="180" height="90" as="geometry" />
        </mxCell>
        <mxCell id="PYVeNpmxs0I2fArVHN6x-15" value="&lt;font face=&quot;Times New Roman&quot; style=&quot;&quot;&gt;&lt;span style=&quot;font-size: 16px;&quot;&gt;Витебск&lt;/span&gt;&lt;/font&gt;" style="rounded=0;whiteSpace=wrap;html=1;movable=1;resizable=1;rotatable=1;deletable=1;editable=1;locked=0;connectable=1;" vertex="1" parent="PYVeNpmxs0I2fArVHN6x-14">
          <mxGeometry width="180" height="90" as="geometry" />
        </mxCell>
        <mxCell id="PYVeNpmxs0I2fArVHN6x-16" value="&lt;font face=&quot;Times New Roman&quot; style=&quot;font-size: 14px;&quot;&gt;4&lt;/font&gt;" style="rounded=0;whiteSpace=wrap;html=1;movable=1;resizable=1;rotatable=1;deletable=1;editable=1;locked=0;connectable=1;" vertex="1" parent="PYVeNpmxs0I2fArVHN6x-14">
          <mxGeometry x="60" width="60.00000000000001" height="30.000000000000004" as="geometry" />
        </mxCell>
        <mxCell id="PYVeNpmxs0I2fArVHN6x-17" value="" style="group" vertex="1" connectable="0" parent="1">
          <mxGeometry x="370" y="60" width="180" height="90" as="geometry" />
        </mxCell>
        <mxCell id="PYVeNpmxs0I2fArVHN6x-18" value="" style="group" vertex="1" connectable="0" parent="PYVeNpmxs0I2fArVHN6x-17">
          <mxGeometry width="180" height="90" as="geometry" />
        </mxCell>
        <mxCell id="PYVeNpmxs0I2fArVHN6x-19" value="" style="group" vertex="1" connectable="0" parent="PYVeNpmxs0I2fArVHN6x-18">
          <mxGeometry width="180" height="90" as="geometry" />
        </mxCell>
        <mxCell id="PYVeNpmxs0I2fArVHN6x-20" value="&lt;font face=&quot;Times New Roman&quot;&gt;&lt;span style=&quot;font-size: 16px;&quot;&gt;Гомель&lt;/span&gt;&lt;/font&gt;" style="rounded=0;whiteSpace=wrap;html=1;movable=1;resizable=1;rotatable=1;deletable=1;editable=1;locked=0;connectable=1;" vertex="1" parent="PYVeNpmxs0I2fArVHN6x-19">
          <mxGeometry width="180" height="90" as="geometry" />
        </mxCell>
        <mxCell id="PYVeNpmxs0I2fArVHN6x-21" value="&lt;font face=&quot;Times New Roman&quot; style=&quot;font-size: 14px;&quot;&gt;5&lt;/font&gt;" style="rounded=0;whiteSpace=wrap;html=1;movable=1;resizable=1;rotatable=1;deletable=1;editable=1;locked=0;connectable=1;" vertex="1" parent="PYVeNpmxs0I2fArVHN6x-19">
          <mxGeometry x="60" width="60.00000000000001" height="30.000000000000004" as="geometry" />
        </mxCell>
        <mxCell id="PYVeNpmxs0I2fArVHN6x-22" value="" style="group" vertex="1" connectable="0" parent="1">
          <mxGeometry x="-160" y="260" width="180" height="90" as="geometry" />
        </mxCell>
        <mxCell id="PYVeNpmxs0I2fArVHN6x-23" value="&lt;font face=&quot;Times New Roman&quot;&gt;&lt;span style=&quot;font-size: 16px;&quot;&gt;Могилёв&lt;/span&gt;&lt;/font&gt;" style="rounded=0;whiteSpace=wrap;html=1;movable=1;resizable=1;rotatable=1;deletable=1;editable=1;locked=0;connectable=1;" vertex="1" parent="PYVeNpmxs0I2fArVHN6x-22">
          <mxGeometry width="180" height="90" as="geometry" />
        </mxCell>
        <mxCell id="PYVeNpmxs0I2fArVHN6x-24" value="&lt;font face=&quot;Times New Roman&quot; style=&quot;font-size: 14px;&quot;&gt;6&lt;/font&gt;" style="rounded=0;whiteSpace=wrap;html=1;movable=1;resizable=1;rotatable=1;deletable=1;editable=1;locked=0;connectable=1;" vertex="1" parent="PYVeNpmxs0I2fArVHN6x-22">
          <mxGeometry x="60" width="60.00000000000001" height="30.000000000000004" as="geometry" />
        </mxCell>
        <mxCell id="PYVeNpmxs0I2fArVHN6x-25" value="" style="group" vertex="1" connectable="0" parent="1">
          <mxGeometry x="-110" y="30" width="180" height="90" as="geometry" />
        </mxCell>
        <mxCell id="PYVeNpmxs0I2fArVHN6x-26" value="" style="group" vertex="1" connectable="0" parent="PYVeNpmxs0I2fArVHN6x-25">
          <mxGeometry width="180" height="90" as="geometry" />
        </mxCell>
        <mxCell id="PYVeNpmxs0I2fArVHN6x-27" value="" style="group" vertex="1" connectable="0" parent="PYVeNpmxs0I2fArVHN6x-26">
          <mxGeometry width="180" height="90" as="geometry" />
        </mxCell>
        <mxCell id="PYVeNpmxs0I2fArVHN6x-28" value="&lt;font face=&quot;Times New Roman&quot;&gt;&lt;span style=&quot;font-size: 16px;&quot;&gt;Лида&lt;/span&gt;&lt;/font&gt;" style="rounded=0;whiteSpace=wrap;html=1;movable=1;resizable=1;rotatable=1;deletable=1;editable=1;locked=0;connectable=1;" vertex="1" parent="PYVeNpmxs0I2fArVHN6x-27">
          <mxGeometry width="180" height="90" as="geometry" />
        </mxCell>
        <mxCell id="PYVeNpmxs0I2fArVHN6x-29" value="&lt;font face=&quot;Times New Roman&quot; style=&quot;font-size: 14px;&quot;&gt;7&lt;/font&gt;" style="rounded=0;whiteSpace=wrap;html=1;movable=1;resizable=1;rotatable=1;deletable=1;editable=1;locked=0;connectable=1;" vertex="1" parent="PYVeNpmxs0I2fArVHN6x-27">
          <mxGeometry x="60" width="60.00000000000001" height="30.000000000000004" as="geometry" />
        </mxCell>
        <mxCell id="PYVeNpmxs0I2fArVHN6x-30" value="" style="group" vertex="1" connectable="0" parent="1">
          <mxGeometry x="130" y="440" width="180" height="90" as="geometry" />
        </mxCell>
        <mxCell id="PYVeNpmxs0I2fArVHN6x-31" value="&lt;font face=&quot;Times New Roman&quot;&gt;&lt;span style=&quot;font-size: 16px;&quot;&gt;Полоцк&lt;/span&gt;&lt;/font&gt;" style="rounded=0;whiteSpace=wrap;html=1;movable=1;resizable=1;rotatable=1;deletable=1;editable=1;locked=0;connectable=1;" vertex="1" parent="PYVeNpmxs0I2fArVHN6x-30">
          <mxGeometry width="180" height="90" as="geometry" />
        </mxCell>
        <mxCell id="PYVeNpmxs0I2fArVHN6x-32" value="&lt;font face=&quot;Times New Roman&quot;&gt;&lt;span style=&quot;font-size: 14px;&quot;&gt;8&lt;/span&gt;&lt;/font&gt;" style="rounded=0;whiteSpace=wrap;html=1;movable=1;resizable=1;rotatable=1;deletable=1;editable=1;locked=0;connectable=1;" vertex="1" parent="PYVeNpmxs0I2fArVHN6x-30">
          <mxGeometry x="60" width="60.00000000000001" height="30.000000000000004" as="geometry" />
        </mxCell>
        <mxCell id="PYVeNpmxs0I2fArVHN6x-33" value="" style="group" vertex="1" connectable="0" parent="1">
          <mxGeometry x="620" y="30" width="180" height="90" as="geometry" />
        </mxCell>
        <mxCell id="PYVeNpmxs0I2fArVHN6x-34" value="" style="group" vertex="1" connectable="0" parent="PYVeNpmxs0I2fArVHN6x-33">
          <mxGeometry width="180" height="90" as="geometry" />
        </mxCell>
        <mxCell id="PYVeNpmxs0I2fArVHN6x-35" value="" style="group" vertex="1" connectable="0" parent="PYVeNpmxs0I2fArVHN6x-34">
          <mxGeometry width="180" height="90" as="geometry" />
        </mxCell>
        <mxCell id="PYVeNpmxs0I2fArVHN6x-36" value="&lt;font face=&quot;Times New Roman&quot;&gt;&lt;span style=&quot;font-size: 16px;&quot;&gt;Сморгонь&lt;/span&gt;&lt;/font&gt;" style="rounded=0;whiteSpace=wrap;html=1;movable=1;resizable=1;rotatable=1;deletable=1;editable=1;locked=0;connectable=1;" vertex="1" parent="PYVeNpmxs0I2fArVHN6x-35">
          <mxGeometry width="180" height="90" as="geometry" />
        </mxCell>
        <mxCell id="PYVeNpmxs0I2fArVHN6x-37" value="&lt;font face=&quot;Times New Roman&quot; style=&quot;font-size: 14px;&quot;&gt;9&lt;/font&gt;" style="rounded=0;whiteSpace=wrap;html=1;movable=1;resizable=1;rotatable=1;deletable=1;editable=1;locked=0;connectable=1;" vertex="1" parent="PYVeNpmxs0I2fArVHN6x-35">
          <mxGeometry x="60" width="60.00000000000001" height="30.000000000000004" as="geometry" />
        </mxCell>
        <mxCell id="PYVeNpmxs0I2fArVHN6x-38" value="" style="group" vertex="1" connectable="0" parent="1">
          <mxGeometry x="-130" y="450" width="180" height="90" as="geometry" />
        </mxCell>
        <mxCell id="PYVeNpmxs0I2fArVHN6x-39" value="&lt;font face=&quot;Times New Roman&quot; style=&quot;font-size: 16px;&quot;&gt;Барановичи&lt;/font&gt;" style="rounded=0;whiteSpace=wrap;html=1;movable=1;resizable=1;rotatable=1;deletable=1;editable=1;locked=0;connectable=1;" vertex="1" parent="PYVeNpmxs0I2fArVHN6x-38">
          <mxGeometry width="180" height="90" as="geometry" />
        </mxCell>
        <mxCell id="PYVeNpmxs0I2fArVHN6x-40" value="&lt;font face=&quot;Times New Roman&quot; style=&quot;font-size: 14px;&quot;&gt;10&lt;/font&gt;" style="rounded=0;whiteSpace=wrap;html=1;movable=1;resizable=1;rotatable=1;deletable=1;editable=1;locked=0;connectable=1;" vertex="1" parent="PYVeNpmxs0I2fArVHN6x-38">
          <mxGeometry x="60" width="60.00000000000001" height="30.000000000000004" as="geometry" />
        </mxCell>
        <mxCell id="PYVeNpmxs0I2fArVHN6x-42" style="edgeStyle=orthogonalEdgeStyle;rounded=0;orthogonalLoop=1;jettySize=auto;html=1;exitX=0;exitY=0.5;exitDx=0;exitDy=0;entryX=0.5;entryY=1;entryDx=0;entryDy=0;" edge="1" parent="1" source="PYVeNpmxs0I2fArVHN6x-7" target="PYVeNpmxs0I2fArVHN6x-28">
          <mxGeometry relative="1" as="geometry" />
        </mxCell>
        <mxCell id="PYVeNpmxs0I2fArVHN6x-43" style="edgeStyle=orthogonalEdgeStyle;rounded=0;orthogonalLoop=1;jettySize=auto;html=1;exitX=0;exitY=0;exitDx=0;exitDy=0;entryX=1;entryY=0.75;entryDx=0;entryDy=0;" edge="1" parent="1" source="PYVeNpmxs0I2fArVHN6x-4" target="PYVeNpmxs0I2fArVHN6x-7">
          <mxGeometry relative="1" as="geometry" />
        </mxCell>
        <mxCell id="PYVeNpmxs0I2fArVHN6x-44" style="edgeStyle=orthogonalEdgeStyle;rounded=0;orthogonalLoop=1;jettySize=auto;html=1;exitX=1;exitY=0.25;exitDx=0;exitDy=0;entryX=0.25;entryY=1;entryDx=0;entryDy=0;" edge="1" parent="1" source="PYVeNpmxs0I2fArVHN6x-7" target="PYVeNpmxs0I2fArVHN6x-20">
          <mxGeometry relative="1" as="geometry" />
        </mxCell>
        <mxCell id="PYVeNpmxs0I2fArVHN6x-45" style="edgeStyle=orthogonalEdgeStyle;rounded=0;orthogonalLoop=1;jettySize=auto;html=1;exitX=1;exitY=0.5;exitDx=0;exitDy=0;entryX=0;entryY=0.5;entryDx=0;entryDy=0;" edge="1" parent="1" source="PYVeNpmxs0I2fArVHN6x-20" target="PYVeNpmxs0I2fArVHN6x-36">
          <mxGeometry relative="1" as="geometry" />
        </mxCell>
        <mxCell id="PYVeNpmxs0I2fArVHN6x-46" style="edgeStyle=orthogonalEdgeStyle;rounded=0;orthogonalLoop=1;jettySize=auto;html=1;exitX=0.5;exitY=0;exitDx=0;exitDy=0;entryX=0.558;entryY=0.982;entryDx=0;entryDy=0;entryPerimeter=0;" edge="1" parent="1" source="PYVeNpmxs0I2fArVHN6x-5" target="PYVeNpmxs0I2fArVHN6x-20">
          <mxGeometry relative="1" as="geometry" />
        </mxCell>
        <mxCell id="PYVeNpmxs0I2fArVHN6x-47" style="edgeStyle=orthogonalEdgeStyle;rounded=0;orthogonalLoop=1;jettySize=auto;html=1;exitX=0.5;exitY=1;exitDx=0;exitDy=0;entryX=0.5;entryY=0;entryDx=0;entryDy=0;" edge="1" parent="1" source="PYVeNpmxs0I2fArVHN6x-4" target="PYVeNpmxs0I2fArVHN6x-16">
          <mxGeometry relative="1" as="geometry" />
        </mxCell>
        <mxCell id="PYVeNpmxs0I2fArVHN6x-48" style="edgeStyle=orthogonalEdgeStyle;rounded=0;orthogonalLoop=1;jettySize=auto;html=1;exitX=0;exitY=0.5;exitDx=0;exitDy=0;entryX=1;entryY=0.5;entryDx=0;entryDy=0;" edge="1" parent="1" source="PYVeNpmxs0I2fArVHN6x-15" target="PYVeNpmxs0I2fArVHN6x-31">
          <mxGeometry relative="1" as="geometry" />
        </mxCell>
        <mxCell id="PYVeNpmxs0I2fArVHN6x-49" style="edgeStyle=orthogonalEdgeStyle;rounded=0;orthogonalLoop=1;jettySize=auto;html=1;exitX=0;exitY=0.5;exitDx=0;exitDy=0;entryX=0.984;entryY=0.382;entryDx=0;entryDy=0;entryPerimeter=0;" edge="1" parent="1" source="PYVeNpmxs0I2fArVHN6x-31" target="PYVeNpmxs0I2fArVHN6x-39">
          <mxGeometry relative="1" as="geometry" />
        </mxCell>
        <mxCell id="PYVeNpmxs0I2fArVHN6x-52" style="edgeStyle=orthogonalEdgeStyle;rounded=0;orthogonalLoop=1;jettySize=auto;html=1;exitX=0;exitY=0.5;exitDx=0;exitDy=0;entryX=1;entryY=0.5;entryDx=0;entryDy=0;" edge="1" parent="1" source="PYVeNpmxs0I2fArVHN6x-4" target="PYVeNpmxs0I2fArVHN6x-12">
          <mxGeometry relative="1" as="geometry" />
        </mxCell>
        <mxCell id="PYVeNpmxs0I2fArVHN6x-53" style="edgeStyle=orthogonalEdgeStyle;rounded=0;orthogonalLoop=1;jettySize=auto;html=1;exitX=0;exitY=0.5;exitDx=0;exitDy=0;entryX=1;entryY=0.5;entryDx=0;entryDy=0;" edge="1" parent="1" source="PYVeNpmxs0I2fArVHN6x-12" target="PYVeNpmxs0I2fArVHN6x-23">
          <mxGeometry relative="1" as="geometry" />
        </mxCell>
        <mxCell id="PYVeNpmxs0I2fArVHN6x-54" style="edgeStyle=orthogonalEdgeStyle;rounded=0;orthogonalLoop=1;jettySize=auto;html=1;exitX=0.5;exitY=1;exitDx=0;exitDy=0;entryX=0.5;entryY=0;entryDx=0;entryDy=0;" edge="1" parent="1" source="PYVeNpmxs0I2fArVHN6x-23" target="PYVeNpmxs0I2fArVHN6x-40">
          <mxGeometry relative="1" as="geometry" />
        </mxCell>
        <mxCell id="PYVeNpmxs0I2fArVHN6x-55" style="edgeStyle=orthogonalEdgeStyle;rounded=0;orthogonalLoop=1;jettySize=auto;html=1;exitX=0;exitY=0.75;exitDx=0;exitDy=0;entryX=0.5;entryY=0;entryDx=0;entryDy=0;" edge="1" parent="1" source="PYVeNpmxs0I2fArVHN6x-7" target="PYVeNpmxs0I2fArVHN6x-24">
          <mxGeometry relative="1" as="geometry" />
        </mxCell>
      </root>
    </mxGraphModel>
  </diagram>
  <diagram id="dWaS2qi4NNhPJJzaznT1" name="Транспорт в маршрутах">
    <mxGraphModel dx="2110" dy="2873" grid="1" gridSize="10" guides="1" tooltips="1" connect="1" arrows="1" fold="1" page="1" pageScale="1" pageWidth="827" pageHeight="1169" math="0" shadow="0">
      <root>
        <mxCell id="0" />
        <mxCell id="1" parent="0" />
        <mxCell id="RYcq_1CHRObmCoaE_r67-1" value="" style="group" vertex="1" connectable="0" parent="1">
          <mxGeometry x="-30" y="-2240" width="170" height="100" as="geometry" />
        </mxCell>
        <mxCell id="RYcq_1CHRObmCoaE_r67-2" value="&lt;font face=&quot;Times New Roman&quot;&gt;&lt;span style=&quot;font-size: 16px;&quot;&gt;0023&lt;/span&gt;&lt;/font&gt;" style="shape=hexagon;perimeter=hexagonPerimeter2;whiteSpace=wrap;html=1;fixedSize=1;" vertex="1" parent="RYcq_1CHRObmCoaE_r67-1">
          <mxGeometry width="170" height="100" as="geometry" />
        </mxCell>
        <mxCell id="RYcq_1CHRObmCoaE_r67-3" value="&lt;font face=&quot;Times New Roman&quot; style=&quot;font-size: 14px;&quot;&gt;1&lt;/font&gt;" style="shape=hexagon;perimeter=hexagonPerimeter2;whiteSpace=wrap;html=1;fixedSize=1;" vertex="1" parent="RYcq_1CHRObmCoaE_r67-1">
          <mxGeometry x="54.09" width="61.82" height="30" as="geometry" />
        </mxCell>
        <mxCell id="RYcq_1CHRObmCoaE_r67-4" value="" style="group" vertex="1" connectable="0" parent="1">
          <mxGeometry x="300" y="-2250" width="170" height="100" as="geometry" />
        </mxCell>
        <mxCell id="RYcq_1CHRObmCoaE_r67-5" value="&lt;div&gt;&lt;font face=&quot;Times New Roman&quot;&gt;&lt;span style=&quot;font-size: 16px;&quot;&gt;0078&lt;/span&gt;&lt;/font&gt;&lt;/div&gt;" style="shape=hexagon;perimeter=hexagonPerimeter2;whiteSpace=wrap;html=1;fixedSize=1;" vertex="1" parent="RYcq_1CHRObmCoaE_r67-4">
          <mxGeometry width="170" height="100" as="geometry" />
        </mxCell>
        <mxCell id="RYcq_1CHRObmCoaE_r67-6" value="&lt;font face=&quot;Times New Roman&quot; style=&quot;font-size: 14px;&quot;&gt;2&lt;/font&gt;" style="shape=hexagon;perimeter=hexagonPerimeter2;whiteSpace=wrap;html=1;fixedSize=1;" vertex="1" parent="RYcq_1CHRObmCoaE_r67-4">
          <mxGeometry x="54.09" width="61.82" height="30" as="geometry" />
        </mxCell>
        <mxCell id="RYcq_1CHRObmCoaE_r67-7" value="" style="group;" vertex="1" connectable="0" parent="1">
          <mxGeometry x="590" y="-2240" width="170" height="100" as="geometry" />
        </mxCell>
        <mxCell id="RYcq_1CHRObmCoaE_r67-8" value="&lt;span style=&quot;font-family: &amp;quot;Times New Roman&amp;quot;; font-size: 16px;&quot;&gt;0165&lt;/span&gt;" style="shape=hexagon;perimeter=hexagonPerimeter2;whiteSpace=wrap;html=1;fixedSize=1;" vertex="1" parent="RYcq_1CHRObmCoaE_r67-7">
          <mxGeometry width="170" height="100" as="geometry" />
        </mxCell>
        <mxCell id="RYcq_1CHRObmCoaE_r67-9" value="&lt;font face=&quot;Times New Roman&quot; style=&quot;font-size: 14px;&quot;&gt;3&lt;/font&gt;" style="shape=hexagon;perimeter=hexagonPerimeter2;whiteSpace=wrap;html=1;fixedSize=1;" vertex="1" parent="RYcq_1CHRObmCoaE_r67-7">
          <mxGeometry x="54.09" width="61.82" height="30" as="geometry" />
        </mxCell>
        <mxCell id="RYcq_1CHRObmCoaE_r67-10" value="" style="group" vertex="1" connectable="0" parent="1">
          <mxGeometry x="630" y="-2100" width="170" height="100" as="geometry" />
        </mxCell>
        <mxCell id="RYcq_1CHRObmCoaE_r67-11" value="&lt;span style=&quot;font-family: &amp;quot;Times New Roman&amp;quot;; font-size: 16px;&quot;&gt;0003&lt;/span&gt;" style="shape=hexagon;perimeter=hexagonPerimeter2;whiteSpace=wrap;html=1;fixedSize=1;" vertex="1" parent="RYcq_1CHRObmCoaE_r67-10">
          <mxGeometry width="170" height="100" as="geometry" />
        </mxCell>
        <mxCell id="RYcq_1CHRObmCoaE_r67-12" value="&lt;font face=&quot;Times New Roman&quot; style=&quot;font-size: 14px;&quot;&gt;4&lt;/font&gt;" style="shape=hexagon;perimeter=hexagonPerimeter2;whiteSpace=wrap;html=1;fixedSize=1;" vertex="1" parent="RYcq_1CHRObmCoaE_r67-10">
          <mxGeometry x="54.09" width="61.82" height="30" as="geometry" />
        </mxCell>
        <mxCell id="RYcq_1CHRObmCoaE_r67-13" value="" style="group" vertex="1" connectable="0" parent="1">
          <mxGeometry x="-170" y="-1880" width="170" height="100" as="geometry" />
        </mxCell>
        <mxCell id="RYcq_1CHRObmCoaE_r67-14" value="&lt;span style=&quot;font-family: &amp;quot;Times New Roman&amp;quot;; font-size: 16px;&quot;&gt;0111&lt;/span&gt;" style="shape=hexagon;perimeter=hexagonPerimeter2;whiteSpace=wrap;html=1;fixedSize=1;" vertex="1" parent="RYcq_1CHRObmCoaE_r67-13">
          <mxGeometry width="170" height="100" as="geometry" />
        </mxCell>
        <mxCell id="RYcq_1CHRObmCoaE_r67-15" value="&lt;font face=&quot;Times New Roman&quot; style=&quot;font-size: 14px;&quot;&gt;5&lt;/font&gt;" style="shape=hexagon;perimeter=hexagonPerimeter2;whiteSpace=wrap;html=1;fixedSize=1;" vertex="1" parent="RYcq_1CHRObmCoaE_r67-13">
          <mxGeometry x="54.09" width="61.82" height="30" as="geometry" />
        </mxCell>
        <mxCell id="RYcq_1CHRObmCoaE_r67-16" value="" style="group" vertex="1" connectable="0" parent="1">
          <mxGeometry x="-230" y="-2070" width="170" height="100" as="geometry" />
        </mxCell>
        <mxCell id="RYcq_1CHRObmCoaE_r67-17" value="&lt;span style=&quot;font-family: &amp;quot;Times New Roman&amp;quot;; font-size: 16px;&quot;&gt;0037&lt;/span&gt;" style="shape=hexagon;perimeter=hexagonPerimeter2;whiteSpace=wrap;html=1;fixedSize=1;" vertex="1" parent="RYcq_1CHRObmCoaE_r67-16">
          <mxGeometry width="170" height="100" as="geometry" />
        </mxCell>
        <mxCell id="RYcq_1CHRObmCoaE_r67-18" value="&lt;font face=&quot;Times New Roman&quot; style=&quot;font-size: 14px;&quot;&gt;6&lt;/font&gt;" style="shape=hexagon;perimeter=hexagonPerimeter2;whiteSpace=wrap;html=1;fixedSize=1;" vertex="1" parent="RYcq_1CHRObmCoaE_r67-16">
          <mxGeometry x="54.09" width="61.82" height="30" as="geometry" />
        </mxCell>
        <mxCell id="RYcq_1CHRObmCoaE_r67-19" value="" style="group" vertex="1" connectable="0" parent="1">
          <mxGeometry x="329" y="-2050" width="170" height="100" as="geometry" />
        </mxCell>
        <mxCell id="RYcq_1CHRObmCoaE_r67-20" value="&lt;span style=&quot;font-family: &amp;quot;Times New Roman&amp;quot;; font-size: 16px;&quot;&gt;0089&lt;/span&gt;" style="shape=hexagon;perimeter=hexagonPerimeter2;whiteSpace=wrap;html=1;fixedSize=1;" vertex="1" parent="RYcq_1CHRObmCoaE_r67-19">
          <mxGeometry width="170" height="100" as="geometry" />
        </mxCell>
        <mxCell id="RYcq_1CHRObmCoaE_r67-21" value="&lt;font face=&quot;Times New Roman&quot; style=&quot;font-size: 14px;&quot;&gt;7&lt;/font&gt;" style="shape=hexagon;perimeter=hexagonPerimeter2;whiteSpace=wrap;html=1;fixedSize=1;" vertex="1" parent="RYcq_1CHRObmCoaE_r67-19">
          <mxGeometry x="54.09" width="61.82" height="30" as="geometry" />
        </mxCell>
        <mxCell id="RYcq_1CHRObmCoaE_r67-22" value="&lt;span style=&quot;font-family: &amp;quot;Times New Roman&amp;quot;; font-size: 16px;&quot;&gt;0031&lt;/span&gt;" style="shape=hexagon;perimeter=hexagonPerimeter2;whiteSpace=wrap;html=1;fixedSize=1;" vertex="1" parent="1">
          <mxGeometry x="540" y="-1920" width="170" height="100" as="geometry" />
        </mxCell>
        <mxCell id="RYcq_1CHRObmCoaE_r67-23" value="&lt;font face=&quot;Times New Roman&quot; style=&quot;font-size: 14px;&quot;&gt;8&lt;/font&gt;" style="shape=hexagon;perimeter=hexagonPerimeter2;whiteSpace=wrap;html=1;fixedSize=1;" vertex="1" parent="1">
          <mxGeometry x="590.0035294117647" y="-1920" width="69.09294117647059" height="30" as="geometry" />
        </mxCell>
        <mxCell id="RYcq_1CHRObmCoaE_r67-24" value="" style="group" vertex="1" connectable="0" parent="1">
          <mxGeometry x="90" y="-1900" width="170" height="100" as="geometry" />
        </mxCell>
        <mxCell id="RYcq_1CHRObmCoaE_r67-25" value="0106" style="shape=hexagon;perimeter=hexagonPerimeter2;whiteSpace=wrap;html=1;fixedSize=1;" vertex="1" parent="RYcq_1CHRObmCoaE_r67-24">
          <mxGeometry width="170" height="100" as="geometry" />
        </mxCell>
        <mxCell id="RYcq_1CHRObmCoaE_r67-26" value="&lt;font face=&quot;Times New Roman&quot; style=&quot;font-size: 14px;&quot;&gt;10&lt;/font&gt;" style="shape=hexagon;perimeter=hexagonPerimeter2;whiteSpace=wrap;html=1;fixedSize=1;" vertex="1" parent="RYcq_1CHRObmCoaE_r67-24">
          <mxGeometry x="54.09" width="61.82" height="30" as="geometry" />
        </mxCell>
        <mxCell id="RYcq_1CHRObmCoaE_r67-27" value="" style="group" vertex="1" connectable="0" parent="1">
          <mxGeometry x="60" y="-2100" width="170" height="100" as="geometry" />
        </mxCell>
        <mxCell id="RYcq_1CHRObmCoaE_r67-28" value="&lt;span style=&quot;font-family: &amp;quot;Times New Roman&amp;quot;; font-size: 16px;&quot;&gt;0019&lt;/span&gt;" style="shape=hexagon;perimeter=hexagonPerimeter2;whiteSpace=wrap;html=1;fixedSize=1;" vertex="1" parent="RYcq_1CHRObmCoaE_r67-27">
          <mxGeometry width="170" height="100" as="geometry" />
        </mxCell>
        <mxCell id="RYcq_1CHRObmCoaE_r67-29" value="&lt;font face=&quot;Times New Roman&quot; style=&quot;font-size: 14px;&quot;&gt;9&lt;/font&gt;" style="shape=hexagon;perimeter=hexagonPerimeter2;whiteSpace=wrap;html=1;fixedSize=1;" vertex="1" parent="RYcq_1CHRObmCoaE_r67-27">
          <mxGeometry x="54.09" width="61.82" height="30" as="geometry" />
        </mxCell>
        <mxCell id="jrOsI0OV0sSS6bKcFSWp-1" value="" style="group" vertex="1" connectable="0" parent="1">
          <mxGeometry x="10" y="-1800" width="180" height="90" as="geometry" />
        </mxCell>
        <mxCell id="jrOsI0OV0sSS6bKcFSWp-2" value="&lt;font face=&quot;Times New Roman&quot;&gt;&lt;span style=&quot;font-size: 16px;&quot;&gt;2303RK&lt;/span&gt;&lt;/font&gt;&lt;div&gt;&lt;font face=&quot;Times New Roman&quot;&gt;&lt;span style=&quot;font-size: 16px;&quot;&gt;Сar&lt;/span&gt;&lt;/font&gt;&lt;/div&gt;" style="shape=parallelogram;perimeter=parallelogramPerimeter;whiteSpace=wrap;html=1;fixedSize=1;" vertex="1" parent="jrOsI0OV0sSS6bKcFSWp-1">
          <mxGeometry width="180" height="90" as="geometry" />
        </mxCell>
        <mxCell id="jrOsI0OV0sSS6bKcFSWp-3" value="&lt;font face=&quot;Times New Roman&quot; style=&quot;font-size: 14px;&quot;&gt;1&lt;/font&gt;" style="shape=parallelogram;perimeter=parallelogramPerimeter;whiteSpace=wrap;html=1;fixedSize=1;" vertex="1" parent="jrOsI0OV0sSS6bKcFSWp-1">
          <mxGeometry x="55" width="70" height="20" as="geometry" />
        </mxCell>
        <mxCell id="jrOsI0OV0sSS6bKcFSWp-4" style="edgeStyle=orthogonalEdgeStyle;rounded=0;orthogonalLoop=1;jettySize=auto;html=1;exitX=0.5;exitY=1;exitDx=0;exitDy=0;" edge="1" parent="jrOsI0OV0sSS6bKcFSWp-1" source="jrOsI0OV0sSS6bKcFSWp-3" target="jrOsI0OV0sSS6bKcFSWp-3">
          <mxGeometry relative="1" as="geometry" />
        </mxCell>
        <mxCell id="jrOsI0OV0sSS6bKcFSWp-5" value="" style="group" vertex="1" connectable="0" parent="1">
          <mxGeometry x="210" y="-1800" width="180" height="90" as="geometry" />
        </mxCell>
        <mxCell id="jrOsI0OV0sSS6bKcFSWp-6" value="&lt;font face=&quot;Times New Roman&quot;&gt;&lt;span style=&quot;font-size: 16px;&quot;&gt;4817TZ&lt;/span&gt;&lt;/font&gt;&lt;div&gt;&lt;font face=&quot;Times New Roman&quot;&gt;&lt;span style=&quot;font-size: 16px;&quot;&gt;Car&lt;/span&gt;&lt;/font&gt;&lt;/div&gt;" style="shape=parallelogram;perimeter=parallelogramPerimeter;whiteSpace=wrap;html=1;fixedSize=1;" vertex="1" parent="jrOsI0OV0sSS6bKcFSWp-5">
          <mxGeometry width="180" height="90" as="geometry" />
        </mxCell>
        <mxCell id="jrOsI0OV0sSS6bKcFSWp-7" value="&lt;font face=&quot;Times New Roman&quot; style=&quot;font-size: 14px;&quot;&gt;2&lt;/font&gt;" style="shape=parallelogram;perimeter=parallelogramPerimeter;whiteSpace=wrap;html=1;fixedSize=1;" vertex="1" parent="jrOsI0OV0sSS6bKcFSWp-5">
          <mxGeometry x="55" width="70" height="20" as="geometry" />
        </mxCell>
        <mxCell id="jrOsI0OV0sSS6bKcFSWp-8" value="" style="group" vertex="1" connectable="0" parent="1">
          <mxGeometry x="410" y="-1800" width="180" height="90" as="geometry" />
        </mxCell>
        <mxCell id="jrOsI0OV0sSS6bKcFSWp-9" value="&lt;font face=&quot;Times New Roman&quot;&gt;&lt;span style=&quot;font-size: 16px;&quot;&gt;3952LM&lt;/span&gt;&lt;/font&gt;&lt;div&gt;&lt;font face=&quot;Times New Roman&quot;&gt;&lt;span style=&quot;font-size: 16px;&quot;&gt;Car&lt;/span&gt;&lt;/font&gt;&lt;/div&gt;" style="shape=parallelogram;perimeter=parallelogramPerimeter;whiteSpace=wrap;html=1;fixedSize=1;" vertex="1" parent="jrOsI0OV0sSS6bKcFSWp-8">
          <mxGeometry width="180" height="90" as="geometry" />
        </mxCell>
        <mxCell id="jrOsI0OV0sSS6bKcFSWp-10" value="&lt;font face=&quot;Times New Roman&quot; style=&quot;font-size: 14px;&quot;&gt;3&lt;/font&gt;" style="shape=parallelogram;perimeter=parallelogramPerimeter;whiteSpace=wrap;html=1;fixedSize=1;" vertex="1" parent="jrOsI0OV0sSS6bKcFSWp-8">
          <mxGeometry x="55" width="70" height="20" as="geometry" />
        </mxCell>
        <mxCell id="jrOsI0OV0sSS6bKcFSWp-11" value="" style="group" vertex="1" connectable="0" parent="1">
          <mxGeometry x="610" y="-1800" width="180" height="90" as="geometry" />
        </mxCell>
        <mxCell id="jrOsI0OV0sSS6bKcFSWp-12" value="&lt;font face=&quot;Times New Roman&quot;&gt;&lt;span style=&quot;font-size: 16px;&quot;&gt;7630BD&lt;/span&gt;&lt;/font&gt;&lt;div&gt;&lt;font face=&quot;Times New Roman&quot;&gt;&lt;span style=&quot;font-size: 16px;&quot;&gt;Car&lt;/span&gt;&lt;/font&gt;&lt;/div&gt;" style="shape=parallelogram;perimeter=parallelogramPerimeter;whiteSpace=wrap;html=1;fixedSize=1;" vertex="1" parent="jrOsI0OV0sSS6bKcFSWp-11">
          <mxGeometry width="180" height="90" as="geometry" />
        </mxCell>
        <mxCell id="jrOsI0OV0sSS6bKcFSWp-13" value="&lt;font face=&quot;Times New Roman&quot; style=&quot;font-size: 14px;&quot;&gt;4&lt;/font&gt;" style="shape=parallelogram;perimeter=parallelogramPerimeter;whiteSpace=wrap;html=1;fixedSize=1;" vertex="1" parent="jrOsI0OV0sSS6bKcFSWp-11">
          <mxGeometry x="55" width="70" height="20" as="geometry" />
        </mxCell>
        <mxCell id="jrOsI0OV0sSS6bKcFSWp-14" value="" style="group" vertex="1" connectable="0" parent="1">
          <mxGeometry y="-1690" width="180" height="90" as="geometry" />
        </mxCell>
        <mxCell id="jrOsI0OV0sSS6bKcFSWp-15" value="&lt;font face=&quot;Times New Roman&quot;&gt;&lt;span style=&quot;font-size: 16px;&quot;&gt;1284QS&lt;/span&gt;&lt;/font&gt;&lt;div&gt;&lt;font face=&quot;Times New Roman&quot;&gt;&lt;span style=&quot;font-size: 16px;&quot;&gt;Bus&lt;/span&gt;&lt;/font&gt;&lt;/div&gt;" style="shape=parallelogram;perimeter=parallelogramPerimeter;whiteSpace=wrap;html=1;fixedSize=1;" vertex="1" parent="jrOsI0OV0sSS6bKcFSWp-14">
          <mxGeometry width="180" height="90" as="geometry" />
        </mxCell>
        <mxCell id="jrOsI0OV0sSS6bKcFSWp-16" value="&lt;font face=&quot;Times New Roman&quot; style=&quot;font-size: 14px;&quot;&gt;5&lt;/font&gt;" style="shape=parallelogram;perimeter=parallelogramPerimeter;whiteSpace=wrap;html=1;fixedSize=1;" vertex="1" parent="jrOsI0OV0sSS6bKcFSWp-14">
          <mxGeometry x="50" width="75" height="20" as="geometry" />
        </mxCell>
        <mxCell id="jrOsI0OV0sSS6bKcFSWp-17" value="" style="group" vertex="1" connectable="0" parent="1">
          <mxGeometry x="200" y="-1690" width="180" height="90" as="geometry" />
        </mxCell>
        <mxCell id="jrOsI0OV0sSS6bKcFSWp-18" value="&lt;font face=&quot;Times New Roman&quot;&gt;&lt;span style=&quot;font-size: 16px;&quot;&gt;9075XE&lt;/span&gt;&lt;/font&gt;&lt;div&gt;&lt;font face=&quot;Times New Roman&quot;&gt;&lt;span style=&quot;font-size: 16px;&quot;&gt;Bus&lt;/span&gt;&lt;/font&gt;&lt;/div&gt;" style="shape=parallelogram;perimeter=parallelogramPerimeter;whiteSpace=wrap;html=1;fixedSize=1;" vertex="1" parent="jrOsI0OV0sSS6bKcFSWp-17">
          <mxGeometry width="180" height="90" as="geometry" />
        </mxCell>
        <mxCell id="jrOsI0OV0sSS6bKcFSWp-19" value="&lt;font face=&quot;Times New Roman&quot; style=&quot;font-size: 14px;&quot;&gt;6&lt;/font&gt;" style="shape=parallelogram;perimeter=parallelogramPerimeter;whiteSpace=wrap;html=1;fixedSize=1;" vertex="1" parent="jrOsI0OV0sSS6bKcFSWp-17">
          <mxGeometry x="55" width="70" height="20" as="geometry" />
        </mxCell>
        <mxCell id="jrOsI0OV0sSS6bKcFSWp-20" value="" style="group" vertex="1" connectable="0" parent="1">
          <mxGeometry x="400" y="-1690" width="180" height="90" as="geometry" />
        </mxCell>
        <mxCell id="jrOsI0OV0sSS6bKcFSWp-21" value="&lt;font face=&quot;Times New Roman&quot;&gt;&lt;span style=&quot;font-size: 16px;&quot;&gt;3142NG&lt;/span&gt;&lt;/font&gt;&lt;div&gt;&lt;font face=&quot;Times New Roman&quot;&gt;&lt;span style=&quot;font-size: 16px;&quot;&gt;Bus&lt;/span&gt;&lt;/font&gt;&lt;/div&gt;" style="shape=parallelogram;perimeter=parallelogramPerimeter;whiteSpace=wrap;html=1;fixedSize=1;" vertex="1" parent="jrOsI0OV0sSS6bKcFSWp-20">
          <mxGeometry width="180" height="90" as="geometry" />
        </mxCell>
        <mxCell id="jrOsI0OV0sSS6bKcFSWp-22" value="&lt;font face=&quot;Times New Roman&quot; style=&quot;font-size: 14px;&quot;&gt;7&lt;/font&gt;" style="shape=parallelogram;perimeter=parallelogramPerimeter;whiteSpace=wrap;html=1;fixedSize=1;" vertex="1" parent="jrOsI0OV0sSS6bKcFSWp-20">
          <mxGeometry x="55" width="70" height="20" as="geometry" />
        </mxCell>
        <mxCell id="jrOsI0OV0sSS6bKcFSWp-23" value="" style="group" vertex="1" connectable="0" parent="1">
          <mxGeometry x="600" y="-1690" width="180" height="90" as="geometry" />
        </mxCell>
        <mxCell id="jrOsI0OV0sSS6bKcFSWp-24" value="&lt;font face=&quot;Times New Roman&quot;&gt;&lt;span style=&quot;font-size: 16px;&quot;&gt;6729HV&lt;/span&gt;&lt;/font&gt;&lt;div&gt;&lt;font face=&quot;Times New Roman&quot;&gt;&lt;span style=&quot;font-size: 16px;&quot;&gt;Train&lt;/span&gt;&lt;/font&gt;&lt;/div&gt;" style="shape=parallelogram;perimeter=parallelogramPerimeter;whiteSpace=wrap;html=1;fixedSize=1;" vertex="1" parent="jrOsI0OV0sSS6bKcFSWp-23">
          <mxGeometry width="180" height="90" as="geometry" />
        </mxCell>
        <mxCell id="jrOsI0OV0sSS6bKcFSWp-25" value="&lt;font face=&quot;Times New Roman&quot; style=&quot;font-size: 14px;&quot;&gt;8&lt;/font&gt;" style="shape=parallelogram;perimeter=parallelogramPerimeter;whiteSpace=wrap;html=1;fixedSize=1;" vertex="1" parent="jrOsI0OV0sSS6bKcFSWp-23">
          <mxGeometry x="55" width="70" height="20" as="geometry" />
        </mxCell>
        <mxCell id="jrOsI0OV0sSS6bKcFSWp-26" value="" style="group" vertex="1" connectable="0" parent="1">
          <mxGeometry y="-1580" width="180" height="90" as="geometry" />
        </mxCell>
        <mxCell id="jrOsI0OV0sSS6bKcFSWp-27" value="&lt;font face=&quot;Times New Roman&quot;&gt;&lt;span style=&quot;font-size: 16px;&quot;&gt;5430AZ&lt;/span&gt;&lt;/font&gt;&lt;div&gt;&lt;font face=&quot;Times New Roman&quot;&gt;&lt;span style=&quot;font-size: 16px;&quot;&gt;Train&lt;/span&gt;&lt;/font&gt;&lt;/div&gt;" style="shape=parallelogram;perimeter=parallelogramPerimeter;whiteSpace=wrap;html=1;fixedSize=1;" vertex="1" parent="jrOsI0OV0sSS6bKcFSWp-26">
          <mxGeometry width="180" height="90" as="geometry" />
        </mxCell>
        <mxCell id="jrOsI0OV0sSS6bKcFSWp-28" value="&lt;font face=&quot;Times New Roman&quot; style=&quot;font-size: 14px;&quot;&gt;9&lt;/font&gt;" style="shape=parallelogram;perimeter=parallelogramPerimeter;whiteSpace=wrap;html=1;fixedSize=1;" vertex="1" parent="jrOsI0OV0sSS6bKcFSWp-26">
          <mxGeometry x="55" width="70" height="20" as="geometry" />
        </mxCell>
        <mxCell id="jrOsI0OV0sSS6bKcFSWp-29" value="" style="group" vertex="1" connectable="0" parent="1">
          <mxGeometry x="200" y="-1580" width="180" height="90" as="geometry" />
        </mxCell>
        <mxCell id="jrOsI0OV0sSS6bKcFSWp-30" value="&lt;font face=&quot;Times New Roman&quot;&gt;&lt;span style=&quot;font-size: 16px;&quot;&gt;8091CY&lt;/span&gt;&lt;/font&gt;&lt;div&gt;&lt;font face=&quot;Times New Roman&quot;&gt;&lt;span style=&quot;font-size: 16px;&quot;&gt;Train&lt;/span&gt;&lt;/font&gt;&lt;/div&gt;" style="shape=parallelogram;perimeter=parallelogramPerimeter;whiteSpace=wrap;html=1;fixedSize=1;" vertex="1" parent="jrOsI0OV0sSS6bKcFSWp-29">
          <mxGeometry width="180" height="90" as="geometry" />
        </mxCell>
        <mxCell id="jrOsI0OV0sSS6bKcFSWp-31" value="&lt;font face=&quot;Times New Roman&quot; style=&quot;font-size: 14px;&quot;&gt;10&lt;/font&gt;" style="shape=parallelogram;perimeter=parallelogramPerimeter;whiteSpace=wrap;html=1;fixedSize=1;" vertex="1" parent="jrOsI0OV0sSS6bKcFSWp-29">
          <mxGeometry x="55" width="70" height="20" as="geometry" />
        </mxCell>
      </root>
    </mxGraphModel>
  </diagram>
</mxfile>
